<?xml version="1.0" standalone="no"?>
<!DOCTYPE svg PUBLIC "-//W3C//DTD SVG 20010904//EN"
 "http://www.w3.org/TR/2001/REC-SVG-20010904/DTD/svg10.dtd">
<svg version="1.0" xmlns="http://www.w3.org/2000/svg"
 width="1024.000000pt" height="1024.000000pt" viewBox="0 0 1024.000000 1024.000000"
 preserveAspectRatio="xMidYMid meet">

<g transform="translate(0.000000,1024.000000) scale(0.100000,-0.100000)"
fill="#006B32" stroke="none">
<path d="M2797 9190 c-112 -131 -171 -236 -183 -324 -7 -51 -19 -52 -29 -3 -8
37 -46 113 -83 169 l-25 39 -39 -58 c-50 -74 -92 -156 -109 -211 -7 -24 -29
-60 -49 -81 -21 -21 -46 -52 -56 -70 -10 -17 -21 -31 -25 -31 -3 0 -9 30 -12
68 -7 89 -25 150 -39 131 -7 -10 -8 -8 -3 9 5 17 -5 44 -36 98 -23 40 -45 74
-48 74 -8 0 -63 -84 -91 -139 -35 -69 -48 -114 -60 -203 -11 -79 -22 -108 -41
-108 -5 0 -9 19 -9 43 0 88 -51 223 -120 319 l-29 39 -30 -53 c-69 -119 -96
-230 -87 -353 4 -56 2 -89 -7 -110 l-14 -30 -7 39 c-10 53 -47 123 -88 167
-43 46 -147 124 -155 115 -3 -3 -6 -61 -7 -128 -1 -171 15 -219 98 -305 l64
-65 -23 -53 c-29 -64 -44 -144 -34 -173 14 -37 73 -54 132 -37 41 11 137 -3
131 -20 -3 -7 3 -16 15 -20 35 -11 24 -22 -22 -23 -24 -1 -81 -13 -126 -27
-82 -26 -130 -29 -79 -5 22 10 25 16 17 26 -9 11 -6 16 12 23 17 7 19 10 7 10
-9 1 -19 -3 -22 -8 -3 -5 -16 -7 -27 -4 -14 4 -25 0 -31 -10 -5 -9 -19 -22
-31 -28 -17 -9 -16 -5 8 20 20 21 46 34 75 40 43 9 44 9 10 10 -40 1 -80 -21
-137 -75 -31 -29 -45 -54 -58 -99 -16 -56 -35 -93 -35 -68 0 25 116 320 180
461 11 23 17 42 15 42 -3 0 -26 -31 -51 -70 -25 -38 -46 -70 -47 -70 -1 0 -1
34 1 75 3 63 0 83 -21 128 -32 70 -93 127 -189 177 l-78 41 0 -43 c0 -83 20
-218 40 -272 38 -100 102 -166 162 -166 53 -1 51 -10 -27 -172 -75 -156 -124
-286 -146 -389 l-12 -54 -14 35 c-13 30 -13 38 1 67 11 23 16 60 15 111 l-1
77 -16 -45 c-16 -42 -17 -43 -20 -17 -2 16 4 40 13 54 10 14 14 34 11 48 -6
23 -6 23 41 9 25 -8 49 -14 53 -14 4 0 17 31 29 68 24 74 23 100 -7 202 -19
63 -80 131 -172 193 l-55 37 -8 -57 c-4 -32 -7 -106 -5 -165 2 -60 0 -108 -3
-108 -4 0 -12 7 -19 15 -7 9 -20 13 -29 10 -8 -3 -12 -3 -8 1 4 4 -5 15 -21
24 -32 20 -172 74 -177 69 -1 -2 1 -49 6 -104 9 -103 39 -220 66 -261 l15 -23
-61 6 c-34 3 -111 0 -170 -7 l-109 -12 60 -102 c33 -55 70 -115 84 -132 l23
-32 -23 -6 c-31 -8 -163 -96 -195 -130 -24 -25 -24 -27 -6 -40 18 -13 18 -16
-10 -97 -25 -76 -34 -147 -35 -297 0 -2 -12 5 -28 16 -27 20 -147 82 -157 82
-11 0 -4 -137 10 -203 19 -90 54 -164 101 -217 29 -32 34 -41 19 -37 -11 3
-53 9 -92 13 -86 8 -85 10 -44 -93 39 -100 85 -168 144 -214 l49 -39 -31 0
c-28 0 -168 -41 -193 -56 -15 -10 106 -128 159 -154 24 -12 62 -24 84 -27 21
-3 39 -8 39 -12 0 -3 -24 -16 -53 -29 -49 -21 -68 -34 -127 -83 -18 -14 -20
-19 -7 -15 11 4 16 2 12 -5 -4 -6 -12 -8 -19 -6 -16 6 -47 -17 -50 -39 -2 -9
-11 -18 -20 -20 -33 -5 -28 -12 20 -33 126 -56 233 -73 321 -52 59 15 144 71
175 117 12 18 29 34 36 34 41 0 238 -133 225 -153 -4 -6 0 -8 10 -4 9 3 19 2
21 -2 3 -5 -5 -8 -17 -7 -12 1 -21 7 -20 13 4 21 -63 43 -135 43 -59 0 -79 -5
-140 -35 -76 -38 -174 -126 -209 -187 l-21 -37 70 -21 c113 -34 183 -44 231
-32 48 13 59 9 25 -8 -12 -7 -31 -20 -41 -29 -18 -15 -18 -16 5 -23 20 -7 19
-7 -6 -4 -21 3 -35 -3 -53 -23 -33 -37 -85 -140 -77 -153 4 -6 3 -8 -3 -5 -9
6 -43 -89 -43 -121 0 -25 72 -5 100 28 3 3 24 21 48 39 24 19 66 64 93 100 27
36 53 71 59 78 5 7 10 17 10 22 0 18 17 21 44 8 14 -7 26 -18 26 -25 0 -7 -4
-10 -10 -7 -5 3 -10 1 -10 -4 0 -6 5 -11 10 -11 6 0 4 -15 -5 -37 -13 -33 -13
-36 0 -19 8 11 16 26 16 33 1 7 3 18 4 23 1 6 3 12 4 15 0 3 15 -1 31 -10 33
-17 38 -36 15 -55 -9 -7 -14 -19 -11 -26 3 -8 0 -13 -5 -11 -6 1 -27 -20 -46
-47 -28 -41 -31 -51 -19 -58 24 -13 222 -26 274 -17 142 23 260 111 297 221
19 57 20 58 73 73 42 13 64 14 109 5 31 -5 59 -12 62 -16 7 -7 -57 -61 -168
-141 -93 -68 -244 -146 -357 -186 -63 -23 -71 -24 -80 -9 -16 24 -167 23 -216
-2 -21 -10 -38 -23 -38 -28 0 -6 7 -5 15 2 9 7 18 10 22 6 10 -10 -6 -20 -34
-21 -35 0 -92 -87 -73 -110 11 -13 10 -14 -2 -10 -9 4 -18 -1 -22 -10 -5 -14
6 -16 107 -12 102 3 116 6 159 32 40 25 58 46 97 111 3 6 85 37 181 69 255 84
509 203 565 265 15 17 31 20 94 20 42 0 83 -5 91 -10 13 -9 13 -10 -1 -10 -8
0 -42 -14 -75 -30 -127 -65 -186 -162 -192 -316 -3 -82 11 -204 24 -204 10 0
100 55 150 91 136 100 194 257 149 405 -8 27 -15 52 -15 57 0 4 77 6 172 5
l172 -3 22 -104 c54 -255 58 -627 10 -885 -82 -429 -241 -717 -474 -856 -239
-141 -558 -206 -1502 -305 -140 -15 -256 -28 -258 -30 -7 -7 853 -17 1155 -14
l331 4 -16 -30 c-30 -53 -120 -133 -184 -163 -35 -17 -136 -46 -228 -67 -91
-20 -178 -43 -195 -51 -16 -8 -21 -12 -10 -9 11 2 61 9 110 15 50 5 130 15
178 21 49 6 90 9 93 7 8 -9 -18 -123 -38 -161 -11 -22 -38 -60 -61 -85 -38
-42 -39 -44 -10 -24 68 48 133 155 133 222 0 19 4 40 8 46 4 6 38 25 76 43 39
17 126 74 195 125 148 109 192 136 286 171 62 24 216 64 304 79 l34 6 -6 -36
c-10 -59 -62 -159 -107 -204 -51 -51 -127 -87 -212 -100 -163 -26 -194 -32
-232 -52 -52 -26 -74 -45 -93 -83 -15 -28 -15 -28 18 7 39 40 114 68 188 68
35 0 42 -3 33 -12 -20 -20 -15 -103 9 -129 19 -23 20 -23 10 -2 -32 65 16 119
139 157 41 12 77 21 79 20 7 -6 -23 -111 -45 -155 -26 -53 -76 -99 -106 -99
-12 0 -19 -3 -15 -6 13 -13 59 8 99 44 48 43 85 116 94 185 7 48 7 48 75 82
37 19 70 39 74 45 12 20 23 9 29 -32 6 -35 18 -54 65 -100 69 -66 137 -92 266
-102 l80 -5 -72 14 c-225 43 -313 169 -242 351 l11 29 23 -46 c59 -114 211
-199 357 -199 32 0 48 -4 48 -13 0 -7 23 -35 52 -62 l51 -50 -41 54 c-23 29
-42 57 -42 61 0 9 135 30 198 30 26 0 54 5 62 10 10 7 -45 10 -165 9 -192 0
-233 7 -305 55 -66 43 -119 153 -120 245 l0 24 88 -7 c174 -13 295 -58 436
-165 123 -92 175 -125 246 -151 40 -15 60 -28 60 -39 0 -39 60 -138 113 -189
69 -64 84 -68 27 -6 -40 44 -81 120 -94 176 l-6 28 58 -6 c33 -4 149 -3 258 2
216 8 217 8 -66 34 -152 14 -234 31 -303 66 -53 27 -157 101 -157 113 0 9 313
2 408 -10 104 -12 233 -54 350 -113 101 -51 155 -98 183 -160 23 -50 25 -28 4
43 -16 51 -69 117 -125 153 l-25 16 35 -7 c122 -28 211 -65 273 -113 l42 -33
-33 42 c-36 46 -129 112 -237 167 l-70 36 1055 -1 1055 0 -61 -28 c-86 -40
-171 -99 -226 -159 -58 -62 -63 -77 -8 -29 52 47 100 71 206 102 91 26 116 27
67 2 -63 -34 -133 -136 -133 -197 0 -21 3 -19 19 15 26 59 87 108 203 164 143
70 263 101 413 107 66 2 167 6 224 8 l103 4 -36 -37 c-93 -95 -213 -136 -446
-152 -271 -19 -276 -24 -30 -33 124 -4 242 -5 262 -1 l38 7 -16 -53 c-18 -61
-44 -106 -89 -158 -23 -26 -25 -32 -9 -23 51 27 116 120 143 203 10 32 19 39
69 58 70 27 126 61 239 146 151 115 262 157 445 171 l91 7 -7 -51 c-15 -118
-65 -195 -152 -238 -57 -28 -64 -29 -239 -32 -99 -2 -184 -8 -189 -13 -6 -5
12 -9 47 -9 52 0 207 -19 216 -26 2 -2 -15 -26 -39 -54 -23 -27 -38 -50 -33
-50 12 0 68 59 82 88 9 17 20 22 54 22 55 0 158 25 205 49 49 25 114 95 143
151 l22 45 15 -35 c24 -58 27 -134 8 -185 -31 -79 -144 -155 -235 -155 -14 0
-33 -5 -41 -11 -11 -7 -6 -8 20 -5 19 3 60 8 91 11 69 7 144 42 188 86 35 34
70 101 71 131 0 14 9 11 54 -15 30 -18 67 -39 83 -48 24 -13 31 -25 36 -63 8
-55 45 -129 86 -173 28 -28 96 -61 107 -51 2 3 -14 10 -36 17 -32 9 -47 22
-70 59 -28 46 -68 167 -58 177 9 9 112 -22 167 -49 64 -33 80 -65 57 -114 -20
-41 -2 -32 20 10 16 30 15 74 -1 112 -8 18 -5 19 43 13 80 -9 132 -28 163 -60
34 -33 39 -22 8 17 -41 52 -119 82 -256 96 -118 12 -190 40 -252 96 -55 50
-105 141 -117 213 -6 40 -6 42 17 37 13 -3 61 -13 107 -21 185 -36 284 -83
477 -227 78 -57 173 -118 213 -136 l72 -32 0 -42 c1 -74 50 -163 123 -220 l42
-33 -52 58 c-56 62 -83 127 -83 200 0 37 1 38 28 33 15 -3 81 -10 147 -16 66
-7 142 -16 169 -21 65 -12 69 -11 21 7 -40 15 -292 74 -315 74 -26 0 -156 70
-199 106 -47 40 -101 109 -101 129 0 8 15 9 53 4 61 -9 912 -9 1207 0 175 5
195 7 135 14 -38 4 -212 24 -385 43 -710 78 -980 133 -1205 244 -147 72 -216
126 -296 233 -181 239 -288 635 -289 1064 0 203 11 331 43 489 l22 106 170 -1
c93 -1 171 -3 172 -5 2 -2 -4 -23 -13 -47 -33 -90 -15 -230 41 -320 34 -53
115 -121 193 -162 l70 -37 12 72 c37 217 -31 382 -189 461 l-69 35 36 6 c82
13 113 8 151 -27 89 -80 337 -191 595 -266 115 -34 131 -41 134 -61 2 -13 25
-44 50 -69 62 -62 126 -79 275 -73 l48 2 -27 49 c-35 65 -97 127 -143 143 -48
17 -173 17 -193 0 -13 -10 -30 -7 -96 17 -93 35 -184 79 -262 129 -63 39 -230
172 -230 182 0 4 27 12 60 18 46 8 73 8 111 -1 45 -11 50 -15 59 -47 24 -90
115 -181 223 -222 68 -26 197 -34 292 -18 73 13 75 13 68 39 l-6 26 24 -22
c38 -34 118 -65 188 -71 53 -4 63 -3 56 9 -6 11 -5 12 6 2 7 -7 27 -13 45 -13
l31 0 -22 68 c-28 85 -73 174 -85 167 -5 -3 -12 0 -16 6 -5 8 -3 9 6 4 8 -5
11 -3 8 6 -3 8 -11 13 -17 11 -7 -1 -10 2 -7 6 7 12 -28 44 -38 35 -4 -5 -6
-3 -4 4 1 6 -13 25 -32 41 l-35 30 47 -8 c73 -11 288 28 288 52 0 5 5 6 10 3
25 -16 5 16 -48 75 -45 49 -60 61 -67 49 -4 -7 -5 -11 0 -7 11 11 36 -12 28
-25 -4 -6 -1 -7 7 -2 10 6 12 4 7 -9 -4 -11 -3 -15 4 -11 12 8 40 -26 32 -39
-4 -5 -1 -6 5 -2 14 8 27 -13 15 -25 -6 -6 -31 6 -65 31 -31 22 -59 40 -62 40
-3 0 -25 14 -50 30 -56 38 -104 58 -181 76 l-60 14 70 -6 c47 -3 65 -2 56 5
-10 6 6 8 47 4 76 -7 81 6 13 36 -64 27 -184 30 -220 4 -14 -9 -21 -11 -17 -5
13 22 116 93 168 117 l51 24 29 -40 c64 -89 172 -136 287 -126 62 5 235 59
246 77 8 12 -117 121 -132 116 -7 -3 -12 0 -10 7 1 7 -30 28 -70 49 -68 34
-75 48 -25 48 37 0 122 51 185 110 37 34 67 65 67 69 0 11 -124 60 -170 67
-22 4 -40 8 -40 10 0 2 23 25 51 51 28 26 62 69 75 96 22 41 74 176 74 189 0
5 -117 -8 -165 -18 l-30 -6 42 39 c23 22 54 64 67 94 24 52 50 178 59 285 l4
51 -46 -20 c-25 -11 -70 -35 -99 -53 l-52 -34 0 53 c0 58 -22 145 -48 186 -8
14 -32 44 -53 66 l-38 40 20 57 c10 32 42 89 71 128 28 39 49 72 47 74 -7 7
-157 36 -184 36 -14 0 -25 3 -25 8 0 4 24 48 54 99 l54 92 -57 8 c-31 4 -107
8 -168 8 -62 0 -113 1 -113 2 0 1 15 31 34 65 53 97 110 298 86 298 -36 0
-185 -46 -244 -75 -65 -32 -68 -33 -61 -12 14 50 17 154 5 233 -6 46 -15 84
-19 84 -10 0 -119 -76 -148 -102 -22 -20 -22 -20 2 38 13 32 29 96 35 143 7
47 16 109 20 136 5 28 7 52 5 54 -11 10 -195 -93 -234 -130 -38 -37 -43 -40
-37 -18 27 94 30 192 14 386 -2 14 -62 -31 -137 -101 -35 -34 -64 -74 -86
-119 -28 -61 -33 -66 -46 -51 -10 12 -13 43 -11 118 2 64 -2 120 -11 151 -17
60 -87 215 -97 215 -13 0 -91 -128 -117 -190 -13 -33 -27 -83 -30 -110 -5 -43
-9 -50 -28 -50 -20 0 -23 7 -33 88 -13 105 -40 181 -94 264 -23 35 -43 65 -45
67 -13 17 -107 -173 -122 -247 -6 -29 -11 -70 -12 -90 l0 -37 -17 25 c-9 14
-32 41 -49 60 -26 28 -35 32 -42 21 -6 -10 -14 3 -26 45 -9 32 -28 81 -42 109
-30 60 -105 174 -115 175 -10 0 -108 -201 -108 -222 0 -35 -16 -17 -27 32 -18
74 -70 171 -137 256 l-60 76 -29 -59 c-44 -85 -66 -157 -73 -232 -11 -125 -54
-303 -54 -223 0 69 -115 293 -142 276 -7 -5 -8 -3 -4 5 8 12 -19 51 -34 51 -4
0 -26 -41 -50 -91 l-42 -92 -28 66 c-31 73 -51 105 -126 194 l-52 61 -30 -66
c-41 -89 -51 -139 -52 -251 l0 -94 -60 65 c-33 36 -97 91 -142 122 l-83 57 -8
-38 c-5 -21 -6 -82 -4 -135 5 -89 -1 -116 -18 -88 -16 26 -336 103 -353 85 -7
-6 29 -107 58 -165 37 -73 96 -151 145 -191 64 -51 117 -69 203 -70 49 0 70
-3 57 -8 -127 -51 -128 -51 -140 -35 -10 14 -16 10 -48 -33 -54 -74 -78 -138
-84 -224 -7 -90 10 -149 57 -208 16 -22 30 -47 31 -57 0 -12 2 -14 6 -6 3 8
25 32 49 54 62 57 84 109 84 196 0 70 -27 179 -52 210 -20 24 1 12 44 -25 24
-21 65 -49 91 -63 26 -14 45 -29 43 -35 -67 -146 -86 -243 -68 -347 16 -94 53
-160 110 -198 25 -17 48 -30 52 -30 4 0 12 -10 18 -22 9 -19 11 -20 11 -5 1
10 14 30 31 44 44 37 75 143 67 235 -7 80 -45 171 -98 233 -18 22 -39 47 -46
56 -11 14 -4 15 65 16 49 0 100 8 142 21 35 12 64 20 65 19 0 -3 18 -32 36
-58 14 -20 15 -35 7 -94 -8 -66 -5 -148 9 -205 5 -21 4 -23 -9 -13 -8 7 -18 9
-22 5 -4 -4 -6 -1 -4 6 2 7 -11 25 -29 39 l-32 25 -23 -74 c-17 -55 -23 -97
-23 -168 0 -88 3 -101 33 -162 31 -63 101 -138 129 -138 15 0 36 -27 31 -40
-2 -6 -51 24 -108 68 -127 95 -230 164 -330 222 -88 51 -92 55 -87 96 l3 32
-45 -14 c-24 -7 -49 -10 -55 -7 -18 11 -300 215 -318 231 -15 12 -16 18 -5 31
11 14 10 15 -7 1 -17 -14 -23 -10 -72 45 -30 33 -57 60 -61 60 -5 0 -37 13
-73 30 -55 25 -77 29 -145 29 -44 0 -99 -6 -123 -13 -42 -12 -43 -13 -29 -34
9 -12 20 -21 25 -20 5 1 9 -5 8 -14 -2 -24 94 -98 161 -123 71 -27 201 -25
244 3 l26 17 80 -87 c43 -49 97 -107 118 -131 l39 -44 -40 8 c-21 4 -45 15
-52 25 -7 10 -43 37 -80 59 -114 67 -236 65 -391 -6 -74 -34 -74 -34 -55 -55
30 -33 173 -97 247 -109 116 -20 89 -37 -118 -74 -180 -32 -296 -66 -394 -116
-142 -71 -244 -190 -292 -340 -11 -36 -23 -72 -26 -80 -3 -9 -14 5 -29 38 -34
77 -113 149 -225 205 -111 56 -222 83 -388 93 -113 7 -113 7 -102 -14 6 -11
24 -77 41 -145 35 -148 61 -211 123 -293 55 -73 130 -133 212 -170 105 -48
285 -44 285 7 0 66 -117 199 -255 291 -49 33 -79 57 -65 53 103 -31 302 -172
350 -250 20 -33 20 -34 3 -224 l-17 -191 -715 2 -716 3 -60 24 c-45 19 -79 25
-135 25 -145 1 -171 -31 -168 -213 0 -59 -2 -113 -5 -118 -4 -6 -33 -12 -65
-15 -37 -2 -80 -14 -113 -31 -29 -14 -54 -25 -56 -23 -7 7 144 239 237 365
109 148 122 157 168 125 12 -8 22 -12 22 -7 0 4 5 0 10 -9 6 -9 36 -27 68 -39
81 -31 241 -32 327 0 57 20 173 89 194 115 8 9 -8 23 -62 53 -94 54 -170 75
-271 76 -72 0 -91 -3 -147 -30 -36 -17 -85 -49 -110 -73 -24 -23 -52 -46 -62
-52 -32 -17 -7 18 110 149 94 107 112 123 139 123 19 0 38 -8 50 -21 85 -94
341 -101 481 -13 78 50 94 66 81 83 -12 14 -11 15 5 2 16 -13 22 -11 54 21
l36 36 -34 17 c-18 10 -64 28 -102 41 -192 65 -371 28 -506 -103 -55 -54 -92
-71 -71 -33 22 42 208 235 221 230 8 -3 37 -5 65 -4 54 1 121 31 116 53 -1 7
1 10 6 7 14 -9 50 36 67 83 8 24 15 66 15 93 l0 50 -37 -6 c-62 -11 -161 -64
-189 -102 -15 -18 -32 -51 -39 -71 -10 -30 -34 -54 -106 -111 -52 -40 -148
-124 -214 -186 -66 -62 -139 -129 -162 -150 -43 -38 -43 -38 -43 -13 0 19 9
30 37 44 49 24 109 104 129 172 18 61 15 180 -6 263 l-12 47 -47 -34 c-109
-79 -160 -158 -168 -259 -7 -82 1 -125 33 -171 44 -65 32 -89 -125 -250 -75
-77 -139 -141 -142 -143 -4 -1 -4 9 -2 22 3 15 19 34 38 46 61 38 114 137 115
215 0 47 -31 205 -41 205 -18 0 -135 -140 -156 -188 -35 -75 -30 -172 10 -225
40 -52 28 -88 -72 -221 -94 -125 -162 -236 -220 -355 -22 -46 -43 -87 -47 -90
-12 -12 4 244 21 324 57 272 199 561 384 783 149 177 270 287 550 496 103 77
103 77 125 58 70 -62 177 -91 275 -74 66 12 163 50 156 62 -3 4 2 7 10 6 7 0
14 4 14 9 0 6 -6 9 -14 9 -8 -1 -13 2 -12 6 3 12 -66 73 -100 90 -15 7 -64 16
-108 19 l-80 6 35 22 c19 12 51 24 70 28 30 5 36 3 45 -17 6 -13 17 -22 24
-20 7 1 10 -1 7 -6 -2 -4 12 -17 32 -27 20 -11 53 -32 72 -47 111 -86 297
-102 499 -42 44 13 50 18 40 30 -13 15 -34 20 -24 5 3 -5 1 -12 -4 -16 -6 -3
-8 4 -6 15 3 15 -9 31 -46 60 -27 21 -58 42 -69 45 -18 6 -16 9 16 37 27 24
32 33 23 44 -6 8 -15 11 -21 8 -5 -3 -4 -13 4 -22 11 -13 10 -15 -4 -9 -12 4
-15 2 -12 -7 7 -17 -3 -23 -46 -31 -18 -3 -40 -10 -49 -15 -21 -12 -9 -12 23
0 14 5 26 6 26 2 0 -11 -111 -47 -132 -44 -10 2 -18 -2 -18 -8 0 -8 -9 -10
-26 -6 -15 4 -23 3 -20 -2 5 -9 -47 -22 -89 -22 -17 0 -18 2 -5 11 13 9 12 10
-3 5 -9 -3 -25 -9 -35 -13 -15 -6 -16 -5 -2 12 14 17 13 18 -12 13 -28 -5 -38
5 -17 17 7 5 4 14 -7 26 -16 18 -16 19 7 19 32 -1 183 26 318 56 27 6 21 16
-12 21 -16 2 -18 1 -8 -6 14 -9 -54 -8 -154 1 -22 2 -43 0 -47 -6 -4 -6 -11
-7 -15 -2 -4 5 -2 11 5 13 16 6 16 32 -1 39 -30 11 -12 29 32 31 l46 2 -28
-20 c-15 -12 -25 -25 -21 -30 7 -12 24 -12 24 1 0 6 9 19 21 31 17 17 25 19
47 11 15 -6 45 -13 67 -17 21 -4 57 -16 78 -27 21 -10 41 -18 43 -15 7 7 -81
46 -141 62 -130 33 -245 9 -335 -72 -27 -24 -62 -46 -82 -49 l-33 -7 30 34
c17 19 53 59 80 89 28 30 65 73 84 94 31 36 35 38 55 26 32 -20 123 -30 180
-19 93 17 168 61 225 128 52 63 61 81 39 81 -7 0 -44 5 -81 10 -74 11 -179 -4
-239 -34 -17 -9 -34 -14 -38 -11 -4 3 -25 -17 -46 -43 -59 -73 -97 -106 -181
-163 -43 -29 -127 -87 -188 -130 -125 -87 -315 -202 -322 -195 -9 8 8 27 34
37 14 5 21 14 17 21 -4 6 -3 8 3 5 12 -7 63 29 63 44 0 6 -5 7 -12 3 -7 -4 -8
-3 -4 5 4 6 11 9 16 6 5 -3 21 18 36 46 20 41 27 70 29 128 1 42 1 59 -2 39
-2 -21 -9 -38 -15 -38 -6 0 -8 -10 -4 -26 5 -18 3 -24 -5 -19 -8 5 -9 -1 -4
-24 5 -24 3 -31 -8 -31 -9 0 -17 -6 -20 -12 -2 -7 -4 2 -5 21 -1 31 0 32 14
15 15 -18 15 -18 10 1 -2 11 -7 30 -11 42 -3 12 -1 24 5 28 5 3 10 11 10 16 0
6 -5 7 -10 4 -7 -4 -10 9 -9 37 1 23 -3 68 -9 98 -5 30 -7 61 -4 70 5 12 3 12
-11 -2 -9 -9 -17 -28 -17 -42 0 -14 -5 -26 -11 -26 -6 0 -8 -9 -4 -21 5 -13 3
-19 -3 -15 -6 3 -8 30 -6 61 2 35 0 55 -7 55 -7 0 -9 -15 -5 -42 l7 -43 -16
34 c-14 32 -14 36 4 55 10 12 17 26 14 33 -5 12 35 63 50 63 17 0 100 54 88
58 -7 2 -20 -3 -31 -13 -15 -14 -25 -15 -57 -6 -22 6 -74 12 -116 13 -42 2
-77 6 -77 9 0 3 14 18 30 34 17 16 30 32 30 37 0 4 -30 8 -67 8 -71 0 -100 10
-89 29 8 12 -4 14 -28 5 -24 -9 -19 -21 12 -33 20 -8 21 -10 5 -7 -13 2 -23 0
-23 -6 0 -5 -5 -6 -10 -3 -6 4 -8 10 -5 15 3 4 0 10 -7 12 -16 6 2 25 53 56
44 26 68 30 49 7 -8 -9 -8 -15 -2 -15 6 0 13 8 17 19 11 36 128 42 224 12 128
-40 281 7 383 117 56 61 91 123 133 235 l25 68 -57 -6 c-128 -15 -293 -61
-308 -86 -16 -24 -20 1 -21 121 -1 72 -4 133 -7 136 -3 3 -47 -26 -99 -64 -94
-69 -140 -118 -172 -179 -9 -18 -18 -33 -19 -33 -1 0 -2 57 -2 128 0 121 -2
131 -34 212 -18 47 -37 89 -41 93 -4 5 -33 -20 -64 -55 -62 -69 -130 -193
-141 -257 -8 -47 -20 -46 -28 2 -3 19 -22 70 -42 115 l-37 81 -44 -52 c-73
-88 -134 -218 -134 -289 0 -43 -13 -33 -33 25 -13 37 -18 77 -17 143 2 96 -18
173 -73 291 -23 49 -24 51 -40 33z m4633 -380 c0 -11 -4 -20 -9 -20 -5 0 -7 9
-4 20 3 11 7 20 9 20 2 0 4 -9 4 -20z m59 -102 c-5 -10 -14 -18 -19 -18 -14 0
-13 17 1 22 7 2 3 18 -11 43 l-23 40 31 -34 c24 -27 29 -39 21 -53z m-39 29
c0 -5 -4 -5 -10 -2 -5 3 -10 14 -10 23 0 15 2 15 10 2 5 -8 10 -19 10 -23z
m87 -73 c13 -19 19 -32 14 -29 -5 3 -15 -10 -22 -30 -8 -21 -16 -30 -20 -23
-4 6 -1 18 7 25 16 16 19 49 5 57 -5 4 -11 1 -13 -6 -2 -6 -9 -8 -16 -4 -9 5
-9 12 1 26 16 26 18 25 44 -16z m42 -103 c1 -35 -5 -22 -12 24 -5 28 -4 34 3
20 5 -11 9 -31 9 -44z m-34 9 c-4 -17 -9 -30 -11 -27 -2 2 -1 18 2 36 4 17 9
30 11 27 3 -2 2 -19 -2 -36z m-4900 10 c17 -19 16 -21 -19 -56 -20 -20 -39
-35 -41 -32 -6 6 27 108 35 108 4 0 15 -9 25 -20z m714 -141 c-5 -11 -14 -19
-20 -19 -6 0 -8 -4 -5 -9 6 -9 -92 -96 -108 -96 -5 0 -11 -7 -13 -15 -4 -13
-3 -13 6 0 6 8 11 11 10 5 0 -27 -48 -63 -106 -80 -34 -10 -79 -32 -99 -48
-37 -31 -94 -111 -94 -133 0 -6 -17 -38 -39 -70 -67 -101 -65 -131 16 -255 24
-36 43 -76 43 -89 0 -19 -9 -14 -67 40 -67 63 -131 100 -168 99 -16 -1 -16 -2
5 -9 14 -4 18 -8 10 -9 -10 -1 -8 -6 8 -17 12 -8 27 -12 32 -9 6 4 9 1 8 -6
-2 -7 2 -13 9 -14 14 0 103 -95 103 -109 0 -5 -7 -17 -15 -26 -14 -15 -14 -20
0 -46 8 -16 15 -34 15 -40 0 -6 11 -28 25 -48 13 -20 22 -36 19 -36 -14 0 -62
45 -57 53 3 6 2 7 -4 4 -20 -13 -179 184 -169 210 3 8 2 12 -3 8 -13 -7 -61
53 -61 77 0 15 4 18 17 14 13 -5 11 0 -7 19 -17 18 -26 22 -31 13 -4 -7 -5
-17 -2 -22 4 -5 6 -30 4 -55 -1 -26 8 -77 19 -116 12 -38 24 -78 27 -89 5 -14
-6 -9 -45 19 -29 21 -57 33 -63 29 -7 -4 -9 -3 -6 3 4 5 -7 23 -23 38 -17 16
-30 24 -30 18 0 -6 6 -13 13 -16 7 -3 21 -24 30 -48 l16 -44 -19 24 c-11 13
-20 32 -20 42 0 28 -17 23 -24 -7 -6 -23 -11 -26 -38 -20 -17 3 -34 8 -36 11
-9 8 86 140 163 228 115 131 414 413 520 489 22 16 79 65 127 108 66 61 87 76
92 64 3 -9 4 -20 1 -25 -4 -5 1 -6 9 -3 17 7 22 24 7 24 -8 0 -8 9 -1 40 0 3
7 -3 15 -14 10 -13 11 -24 4 -37z m-602 19 c-3 -8 -6 -5 -6 6 -1 11 2 17 5 13
3 -3 4 -12 1 -19z m270 -24 c54 -41 72 -73 49 -86 -8 -5 -67 -49 -131 -98 -63
-50 -118 -90 -120 -90 -2 0 -2 7 1 15 4 8 11 12 17 8 6 -4 8 0 4 10 -4 11 -2
14 7 11 21 -8 92 113 107 181 7 33 12 66 10 73 -3 18 5 15 56 -24z m213 32 c0
-2 -8 -10 -17 -17 -16 -13 -17 -12 -4 4 13 16 21 21 21 13z m-599 -43 c7 -18
6 -30 -1 -37 -7 -7 -10 -6 -10 3 0 7 -6 11 -14 8 -10 -4 -13 -1 -10 9 2 7 6
21 9 29 7 22 14 18 26 -12z m744 7 c3 -5 1 -10 -4 -10 -6 0 -11 5 -11 10 0 6
2 10 4 10 3 0 8 -4 11 -10z m-950 -22 c14 -6 25 -14 25 -17 0 -3 -21 -37 -45
-75 -25 -38 -45 -76 -45 -83 0 -8 -4 -11 -10 -8 -5 3 -18 2 -27 -4 -15 -7 -11
5 14 57 18 37 38 84 43 105 12 42 10 41 45 25z m5876 -30 c1 -13 1 -29 -1 -37
-2 -16 -93 -155 -148 -226 -65 -84 -77 -83 -19 1 66 96 80 122 72 134 -10 16
-55 -11 -61 -37 -4 -13 -10 -23 -15 -23 -12 0 -11 17 1 25 6 3 10 10 10 16 0
5 -4 9 -10 9 -5 0 -10 -7 -10 -15 0 -8 -4 -15 -9 -15 -5 0 -16 -16 -25 -35
-16 -34 -36 -54 -36 -37 0 4 14 36 30 70 17 34 30 66 30 71 0 20 73 80 121 98
70 27 69 27 70 1z m-5695 -26 c2 -9 5 -28 7 -42 2 -14 2 -17 0 -7 -2 9 -9 17
-14 17 -5 0 -9 14 -9 32 0 32 12 32 16 0z m59 -21 c20 -61 67 -128 100 -143
43 -19 31 -48 -42 -103 -37 -27 -125 -108 -195 -180 l-129 -130 25 55 c14 30
26 65 26 78 0 13 6 22 15 22 32 0 75 32 100 73 52 90 73 178 74 315 1 34 3 62
5 62 3 0 12 -22 21 -49z m-919 19 c30 0 11 -31 -58 -92 -39 -34 -81 -74 -92
-87 -33 -39 -83 -90 -60 -61 105 130 106 132 42 88 -27 -19 -39 -13 -18 8 8 8
6 15 -5 24 -13 11 -12 15 12 36 15 13 24 26 20 30 -4 4 -16 -2 -27 -14 -21
-22 -30 -27 -30 -17 0 16 65 66 97 74 67 17 78 19 91 15 8 -2 20 -4 28 -4z
m6774 -11 c0 -5 11 -9 25 -9 14 0 25 -5 25 -10 0 -6 -12 -8 -27 -5 -16 3 -21
2 -13 -1 28 -13 65 -27 73 -29 4 -2 9 -4 12 -5 3 -1 9 -3 15 -4 5 0 18 -9 30
-18 17 -15 20 -15 20 -3 0 8 5 15 10 15 6 0 10 -4 10 -10 0 -5 8 -10 18 -11
11 -1 9 -4 -8 -9 -22 -7 -22 -8 -5 -10 11 -1 25 -1 30 0 5 1 7 -2 2 -6 -4 -4
1 -16 10 -27 11 -12 -3 -6 -37 14 -30 19 -57 36 -60 39 -10 10 -114 50 -118
45 -3 -3 3 -14 12 -24 10 -11 15 -25 10 -32 -4 -8 -3 -10 4 -5 6 4 24 -8 39
-26 71 -82 140 -151 179 -177 l42 -28 -31 0 c-18 0 -26 2 -19 5 9 3 -2 15 -28
32 -23 15 -54 41 -69 56 -65 69 -86 83 -101 73 -13 -9 -12 -10 3 -5 11 3 17 0
17 -9 0 -18 -12 -19 -28 -3 -7 7 -8 17 -2 29 7 12 6 20 -2 25 -7 4 -8 3 -4 -4
4 -7 5 -12 2 -12 -3 0 -13 16 -22 35 -19 41 -38 48 -23 9 19 -52 1 -34 -28 28
-17 35 -26 65 -21 67 6 2 6 6 -1 10 -6 4 5 7 24 8 19 1 35 -3 35 -8z m94 -25
c9 -3 16 -11 16 -16 0 -7 -5 -6 -13 1 -8 6 -17 8 -20 4 -4 -3 -7 -1 -7 5 0 14
2 14 24 6z m56 -24 c0 -5 -7 -7 -15 -4 -8 4 -15 8 -15 10 0 2 7 4 15 4 8 0 15
-4 15 -10z m-6073 -37 c-3 -10 -5 -4 -5 12 0 17 2 24 5 18 2 -7 2 -21 0 -30z
m-1057 -33 c0 -5 -5 -10 -11 -10 -5 0 -7 5 -4 10 3 6 8 10 11 10 2 0 4 -4 4
-10z m1064 -18 c-6 -4 -14 -20 -19 -37 -4 -16 -10 -24 -12 -18 -3 7 1 29 7 49
9 27 15 33 23 25 9 -9 9 -14 1 -19z m-259 -91 c0 -90 -9 -109 -21 -45 -5 25
-9 32 -15 22 -10 -15 -13 -2 -9 42 1 19 34 70 45 70 0 0 1 -40 0 -89z m5022
-23 l111 -113 -69 -120 c-37 -66 -83 -155 -100 -197 -18 -43 -35 -76 -37 -73
-3 3 1 36 8 74 17 92 9 165 -28 238 -32 63 -49 82 -90 98 -20 9 -9 10 49 7 41
-2 72 -2 69 1 -3 3 -40 20 -82 37 -43 18 -78 37 -78 42 0 5 -6 6 -12 2 -7 -4
-10 -4 -6 1 4 4 -14 22 -40 39 -30 20 -50 28 -54 21 -5 -6 -8 -6 -8 2 0 15 17
26 24 14 18 -29 254 -150 294 -151 19 0 22 4 16 28 -8 32 -32 82 -40 82 -4 0
-3 -7 0 -16 3 -9 2 -12 -5 -9 -5 4 -7 14 -4 24 3 11 -4 26 -20 41 -25 23 -32
40 -17 40 4 0 57 -51 119 -112z m-4122 82 c-10 -11 -23 -20 -28 -20 -13 0 24
39 37 39 5 1 1 -8 -9 -19z m5292 -12 c-3 -8 -6 -5 -6 6 -1 11 2 17 5 13 3 -3
4 -12 1 -19z m-998 -25 c43 -52 39 -61 -9 -21 -22 18 -40 39 -40 46 0 22 18
13 49 -25z m-4936 7 c-3 -11 -7 -20 -9 -20 -2 0 -4 9 -4 20 0 11 4 20 9 20 5
0 7 -9 4 -20z m978 -51 c-11 -9 -21 -22 -21 -28 0 -6 -5 -11 -10 -11 -12 0 -6
11 25 52 11 14 22 21 24 15 2 -6 -6 -18 -18 -28z m-1024 9 c-3 -8 -6 -5 -6 6
-1 11 2 17 5 13 3 -3 4 -12 1 -19z m19 -40 c-19 -27 -21 -19 -4 18 7 14 14 21
16 15 2 -6 -4 -21 -12 -33z m4704 22 c0 -5 -2 -10 -4 -10 -3 0 -8 5 -11 10 -3
6 -1 10 4 10 6 0 11 -4 11 -10z m-208 -20 c7 -11 18 -20 24 -20 6 0 18 -8 25
-17 12 -15 12 -16 -3 -10 -13 4 -18 1 -18 -11 -1 -11 -6 -7 -17 13 -8 17 -22
38 -31 48 -9 10 -11 17 -4 17 7 0 17 -9 24 -20z m1815 -66 c-3 -4 -13 -4 -22
-1 -10 5 -15 19 -14 49 l0 43 21 -42 c12 -24 19 -45 15 -49z m-1572 66 c3 -5
2 -10 -4 -10 -5 0 -13 5 -16 10 -3 6 -2 10 4 10 5 0 13 -4 16 -10z m-4765 -35
c0 -5 -5 -3 -10 5 -5 8 -10 20 -10 25 0 6 5 3 10 -5 5 -8 10 -19 10 -25z
m-576 -12 c38 -12 81 -30 94 -39 16 -10 56 -18 106 -21 l82 -6 11 -84 c7 -47
21 -104 32 -127 12 -23 21 -45 21 -49 0 -3 -18 -34 -39 -67 -22 -34 -42 -66
-44 -73 -3 -9 -8 -9 -18 1 -9 9 -13 43 -14 115 0 92 -3 108 -30 164 -16 35
-36 65 -45 68 -12 5 -13 4 -2 -6 19 -20 15 -41 -7 -34 -11 3 -21 0 -24 -8 -4
-10 4 -12 29 -11 19 2 34 -1 34 -7 0 -6 -4 -8 -8 -5 -14 9 -7 -81 7 -98 8 -9
12 -19 9 -21 -2 -3 -22 23 -44 57 -45 69 -162 174 -241 214 -42 21 -53 31 -53
51 0 22 3 23 38 17 20 -4 68 -18 106 -31z m1618 -56 c-2 -20 -8 -37 -12 -37
-5 0 -10 -17 -12 -37 -2 -30 -8 -38 -30 -44 -16 -4 -28 -3 -28 2 0 5 5 9 10 9
6 0 10 16 10 35 0 19 5 35 10 35 6 0 10 16 10 35 0 23 6 38 15 41 11 5 13 10
5 19 -5 6 -7 15 -3 18 12 13 29 -39 25 -76z m5465 26 c-26 -77 -20 -163 17
-225 14 -25 26 -56 25 -69 l0 -24 -11 25 c-6 14 -39 85 -74 157 -35 73 -64
135 -64 138 0 3 8 5 18 5 12 0 92 37 108 49 0 1 -8 -25 -19 -56z m-623 23 c3
-14 4 -30 2 -38 -23 -80 -41 -126 -49 -121 -6 3 -7 1 -3 -5 7 -12 -36 -77 -67
-100 -10 -8 -28 -23 -40 -35 -41 -40 -62 -52 -29 -16 32 34 110 183 138 263
18 49 18 54 -1 30 -13 -16 -16 -17 -24 -4 -8 12 -3 19 22 31 43 23 44 22 51
-5z m-7693 -26 c25 -14 24 -26 -1 -33 -11 -3 -18 -1 -14 4 3 5 1 9 -4 9 -5 0
-9 7 -9 15 0 18 2 18 28 5z m3514 -10 c-3 -5 -12 -10 -18 -10 -7 0 -6 4 3 10
19 12 23 12 15 0z m4101 -5 c7 -16 -14 -53 -48 -87 -28 -28 -33 -17 -5 13 12
13 21 27 20 31 -2 5 2 8 7 8 6 0 10 7 10 15 0 8 -3 15 -6 15 -9 0 -33 -31 -44
-57 -5 -13 -14 -23 -20 -23 -13 0 -7 12 34 63 32 40 43 45 52 22z m553 -7 c5
-13 19 -48 31 -78 l22 -55 -34 38 c-18 20 -57 50 -87 66 -47 25 -51 30 -35 40
11 6 36 11 57 11 30 0 39 -5 46 -22z m-7049 -11 c0 -14 109 -199 123 -208 5
-4 6 -12 3 -18 -4 -6 -4 -10 1 -9 5 2 34 -23 66 -54 31 -32 54 -58 51 -58 -13
0 -109 83 -106 92 1 5 -2 7 -7 4 -12 -8 -50 45 -44 62 3 7 -1 10 -10 7 -10 -4
-21 12 -39 52 -25 57 -33 78 -38 98 -1 6 -6 20 -11 33 -6 15 -5 21 1 17 6 -3
10 -11 10 -18z m-1054 -9 c-1 -18 4 -22 21 -21 16 2 21 -2 17 -12 -4 -8 -1
-15 5 -15 6 0 11 5 11 11 0 6 7 4 15 -5 8 -8 15 -19 15 -24 0 -6 15 -14 33
-19 36 -9 113 -86 118 -118 2 -11 8 -23 14 -27 5 -4 2 -15 -9 -27 -19 -21 -31
-91 -15 -91 6 0 8 -4 4 -9 -3 -5 0 -21 7 -36 8 -18 14 -22 20 -13 4 7 8 9 8 3
0 -5 -4 -17 -10 -25 -7 -11 -14 -3 -30 35 -12 28 -23 59 -24 70 -3 26 -65 155
-83 173 -7 7 -13 18 -13 23 0 6 -5 7 -12 3 -7 -4 -8 -3 -4 4 4 7 2 20 -4 29
-10 16 -11 16 -5 -2 4 -13 -9 -5 -39 24 -62 61 -66 48 -5 -17 27 -29 49 -57
49 -63 0 -5 -25 17 -55 48 -41 43 -54 63 -50 80 4 18 1 20 -18 16 -21 -4 -20
-4 3 10 34 21 38 20 36 -5z m39 -6 c-3 -3 -11 0 -18 7 -9 10 -8 11 6 5 10 -3
15 -9 12 -12z m870 8 c3 -5 -1 -10 -9 -10 -9 0 -16 5 -16 10 0 6 4 10 9 10 6
0 13 -4 16 -10z m6912 4 c-3 -3 -12 -4 -19 -1 -8 3 -5 6 6 6 11 1 17 -2 13 -5z
m-1412 -14 c-3 -5 -1 -10 6 -10 7 0 10 -3 6 -6 -9 -9 -28 6 -22 17 4 5 8 9 11
9 3 0 2 -4 -1 -10z m1385 -16 c4 -18 41 -56 135 -139 41 -36 132 -81 180 -89
95 -16 92 -14 105 -63 24 -98 29 -143 19 -165 -9 -22 -9 -22 -5 2 11 54 -4 71
-122 141 l-44 27 58 18 59 17 -75 13 c-41 7 -95 21 -120 30 -57 21 -190 102
-190 116 0 5 -6 8 -14 5 -18 -7 -38 9 -65 56 l-23 37 24 10 c36 15 71 8 78
-16z m-6821 0 c24 28 37 17 49 -41 26 -126 116 -254 207 -294 22 -10 68 -21
102 -25 35 -3 67 -12 72 -18 6 -7 -4 -39 -30 -91 -21 -44 -48 -109 -60 -145
-31 -93 -33 -94 -39 -9 -14 188 -146 323 -339 345 -34 3 -63 10 -65 13 -3 4
13 49 35 100 43 104 46 116 24 107 -8 -3 -15 -1 -15 4 0 6 9 10 20 10 11 0 20
4 20 9 0 5 -9 7 -20 4 -11 -3 -20 0 -20 6 0 6 8 12 18 12 15 1 14 2 -2 6 -15
4 -16 7 -6 13 9 5 18 3 25 -7 10 -13 12 -13 24 1z m1581 1 c0 -2 -20 -18 -45
-35 -35 -24 -45 -27 -45 -15 0 9 18 24 43 35 50 22 47 21 47 15z m-2434 -42
c-7 -7 -26 7 -26 19 0 6 6 6 15 -2 9 -7 13 -15 11 -17z m539 17 c-3 -5 -13
-10 -21 -10 -8 0 -14 5 -14 10 0 6 9 10 21 10 11 0 17 -4 14 -10z m2132 -37
c-3 -10 -5 -4 -5 12 0 17 2 24 5 18 2 -7 2 -21 0 -30z m-1890 21 c-3 -3 -12
-4 -19 -1 -8 3 -5 6 6 6 11 1 17 -2 13 -5z m1775 -36 c-8 -8 -9 -4 -5 13 4 13
8 18 11 10 2 -7 -1 -18 -6 -23z m3478 6 c0 -3 -6 -2 -12 2 -7 4 -2 -5 11 -19
13 -15 27 -24 32 -22 4 3 5 -5 1 -17 -3 -14 -2 -19 6 -14 7 4 12 2 12 -4 0 -7
-8 -9 -20 -5 -18 6 -20 3 -14 -22 5 -25 4 -24 -15 9 -11 21 -25 56 -30 78 -8
37 -8 39 10 29 11 -5 19 -12 19 -15z m1316 -1 c-7 -7 -26 7 -26 19 0 6 6 6 15
-2 9 -7 13 -15 11 -17z m-6589 -13 c1 -11 -3 -23 -9 -26 -7 -4 -8 -2 -4 5 4 6
2 18 -4 26 -10 12 -10 15 2 15 7 0 14 -9 15 -20z m1899 -27 c-10 -10 -19 5
-10 18 6 11 8 11 12 0 2 -7 1 -15 -2 -18z m4674 23 c0 -3 -4 -8 -10 -11 -5 -3
-10 -1 -10 4 0 6 5 11 10 11 6 0 10 -2 10 -4z m-4720 -57 c-2 -77 -2 -95 4
-124 5 -21 2 -18 -8 10 -9 22 -16 48 -16 58 0 9 -4 17 -10 17 -5 0 -10 5 -10
11 0 6 6 9 14 6 11 -4 13 3 9 36 -4 31 -3 39 6 31 6 -6 11 -26 11 -45z m-1373
19 c-3 -8 -6 -5 -6 6 -1 11 2 17 5 13 3 -3 4 -12 1 -19z m2038 -6 c-3 -3 -11
0 -18 7 -9 10 -8 11 6 5 10 -3 15 -9 12 -12z m4009 -5 c-3 -8 -12 -18 -20 -21
-11 -4 -11 0 2 20 18 26 28 27 18 1z m-4847 -19 c-3 -8 -6 -5 -6 6 -1 11 2 17
5 13 3 -3 4 -12 1 -19z m213 -13 c0 -5 -5 -3 -10 5 -5 8 -10 20 -10 25 0 6 5
3 10 -5 5 -8 10 -19 10 -25z m5420 -39 c-1 -6 -7 4 -15 23 -8 18 -15 38 -15
45 1 6 7 -4 15 -23 8 -18 15 -38 15 -45z m-5541 -15 c13 -36 34 -70 52 -86 39
-32 34 -60 -18 -95 -83 -55 -311 -226 -364 -271 l-56 -49 -6 83 c-3 45 -13
118 -23 162 -26 119 -25 123 21 144 l40 18 -3 -38 c-5 -50 22 -141 53 -177 14
-17 25 -43 25 -58 l1 -29 13 30 c8 20 25 34 49 43 46 16 102 80 135 151 22 48
26 70 27 152 0 86 2 96 16 88 9 -4 26 -35 38 -68z m-709 49 c0 -5 -2 -10 -4
-10 -3 0 -8 5 -11 10 -3 6 -1 10 4 10 6 0 11 -4 11 -10z m643 -10 c3 -11 1
-18 -4 -14 -5 3 -9 12 -9 20 0 20 7 17 13 -6z m4331 -26 c29 -38 33 -49 25
-70 -6 -16 -5 -32 1 -44 11 -20 14 -57 4 -47 -4 3 -20 -1 -36 -9 -37 -19 -43
-14 -29 27 13 38 6 53 -8 18 -14 -33 -32 -53 -58 -67 -33 -18 -34 -15 -9 22
23 35 50 112 61 179 3 20 8 37 10 37 2 0 20 -21 39 -46z m-4162 4 c-7 -7 -12
-8 -12 -2 0 14 12 26 19 19 2 -3 -1 -11 -7 -17z m-2265 -39 c15 -6 57 -16 93
-23 l65 -12 -63 -29 c-99 -44 -190 -161 -193 -247 -1 -26 -3 -28 -6 -9 -11 57
41 331 63 331 7 0 25 -5 41 -11z m5038 1 c3 -6 0 -12 -7 -14 -87 -22 -178 -41
-178 -37 0 4 19 18 43 33 44 27 129 38 142 18z m-2210 -20 c10 -11 13 -20 7
-20 -7 0 -12 4 -12 8 0 5 -10 14 -22 20 -16 7 -18 11 -7 11 9 1 24 -8 34 -19z
m-1415 -88 c0 -13 -49 73 -50 87 0 8 11 -7 25 -33 14 -26 25 -50 25 -54z
m4791 75 c-10 -9 -11 -8 -5 6 3 10 9 15 12 12 3 -3 0 -11 -7 -18z m-5958 -4
c-7 -2 -21 -2 -30 0 -10 3 -4 5 12 5 17 0 24 -2 18 -5z m2554 1 c-3 -3 -12 -4
-19 -1 -8 3 -5 6 6 6 11 1 17 -2 13 -5z m-2617 -14 c0 -5 -5 -10 -11 -10 -5 0
-7 5 -4 10 3 6 8 10 11 10 2 0 4 -4 4 -10z m145 -7 c-1 -10 -5 -34 -10 -53 -5
-19 -9 -39 -10 -45 -5 -40 -23 -75 -54 -102 -20 -18 -43 -39 -51 -46 -21 -19
-47 -27 -65 -21 -12 5 -9 11 12 28 15 11 34 20 43 18 12 -2 13 -1 1 7 -11 7
-8 18 21 58 46 63 88 140 81 147 -4 3 0 6 8 7 8 1 3 5 -11 9 -24 8 -24 8 6 9
23 1 30 -3 29 -16z m2903 8 c11 -7 10 -9 -3 -14 -9 -4 -14 -3 -10 2 3 5 -1 12
-7 14 -7 3 -8 6 -3 6 6 0 16 -3 23 -8z m2632 -26 c16 -8 37 -15 47 -15 41 -1
44 -12 23 -96 -12 -43 -24 -128 -28 -187 l-7 -108 -57 51 c-63 56 -70 77 -38
117 44 57 67 216 35 243 -8 7 -15 18 -14 24 0 7 3 6 6 -2 3 -7 18 -19 33 -27z
m1623 28 c-7 -2 -19 -2 -25 0 -7 3 -2 5 12 5 14 0 19 -2 13 -5z m-7230 -10
c-7 -2 -19 -2 -25 0 -7 3 -2 5 12 5 14 0 19 -2 13 -5z m-491 -40 c-3 -16 -7
-22 -10 -15 -4 13 4 42 11 42 2 0 2 -12 -1 -27z m479 9 c-7 -2 -18 1 -23 6 -8
8 -4 9 13 5 13 -4 18 -8 10 -11z m5999 4 c0 -2 -7 -7 -16 -10 -8 -3 -12 -2 -9
4 6 10 25 14 25 6z m1224 -25 c-2 -3 -12 3 -22 13 -16 17 -16 18 5 5 12 -7 20
-15 17 -18z m-5870 -5 c-3 -9 -10 -13 -15 -10 -5 3 -3 11 4 19 15 16 19 13 11
-9z m-1344 0 c0 -2 -7 -7 -16 -10 -8 -3 -12 -2 -9 4 6 10 25 14 25 6z m3094
-5 c4 -5 -3 -7 -14 -4 -23 6 -26 13 -6 13 8 0 17 -4 20 -9z m3243 -75 l25 -49
-36 -81 c-20 -45 -47 -111 -60 -148 -13 -37 -29 -75 -36 -83 -10 -12 -10 -19
-2 -27 8 -8 12 -9 12 -1 0 6 8 14 17 17 15 6 15 4 -2 -14 -13 -14 -22 -17 -30
-10 -9 7 -22 -1 -48 -29 -81 -90 -119 -216 -98 -329 7 -35 21 -82 32 -103 10
-21 19 -45 19 -53 0 -13 4 -13 28 -2 15 7 49 24 75 36 105 50 178 191 176 338
0 42 -25 151 -42 192 -5 10 5 22 32 37 l39 22 6 -27 c15 -62 18 -281 6 -363
-17 -116 -78 -297 -145 -429 -32 -61 -59 -110 -60 -108 -2 2 -21 52 -44 113
-57 151 -179 368 -287 513 -25 34 -31 48 -25 69 6 24 15 29 82 43 41 9 96 28
122 43 53 32 88 74 69 86 -16 10 35 112 59 118 17 5 18 14 15 93 -3 48 -7 108
-11 132 -7 43 -5 46 27 66 38 25 41 23 85 -62z m-6187 -88 c21 -43 34 -78 30
-78 -9 0 -62 58 -104 113 l-29 38 18 37 17 37 16 -35 c8 -19 32 -70 52 -112z
m1217 127 c8 -9 13 -18 11 -21 -3 -2 -13 5 -23 16 -21 23 -11 27 12 5z m1550
-11 c-3 -3 -12 -4 -19 -1 -8 3 -5 6 6 6 11 1 17 -2 13 -5z m40 0 c-3 -3 -12
-4 -19 -1 -8 3 -5 6 6 6 11 1 17 -2 13 -5z m2106 -46 c301 -203 555 -447 705
-676 71 -109 172 -321 216 -453 43 -129 76 -312 76 -422 l-1 -82 -62 120 c-68
132 -167 287 -249 392 -170 218 -482 526 -751 742 -45 37 -66 60 -62 70 23 75
44 182 50 259 4 50 9 92 12 92 2 0 32 -19 66 -42z m-5559 -34 c9 -21 16 -58
15 -92 l0 -57 -45 94 c-24 51 -44 94 -44 96 0 1 13 0 29 -3 20 -3 33 -13 45
-38z m8009 -44 c3 -39 2 -55 -3 -40 -8 25 -13 117 -6 109 2 -2 6 -33 9 -69z
m-75 36 c-7 -8 -15 -12 -17 -11 -5 6 10 25 20 25 5 0 4 -6 -3 -14z m33 -9
c-10 -9 -11 -8 -5 6 3 10 9 15 12 12 3 -3 0 -11 -7 -18z m3 -41 c-3 -9 -10
-13 -15 -10 -5 3 -3 11 4 19 15 16 19 13 11 -9z m-6054 -71 c0 -75 -23 -192
-46 -238 -9 -18 -30 -49 -47 -71 -29 -37 -31 -38 -39 -16 -5 14 -2 42 9 78 25
83 23 205 -3 262 l-21 45 74 2 73 2 0 -64z m4456 50 c-43 -98 -47 -244 -8
-307 16 -26 19 -41 14 -63 l-8 -29 -36 48 c-20 26 -44 68 -52 94 -14 40 -46
223 -46 259 0 8 21 11 70 10 42 -1 68 -6 66 -12z m-5077 -88 c14 -16 47 -44
74 -63 l47 -34 0 29 c0 16 5 42 11 58 l11 28 12 -46 c35 -134 156 -239 276
-239 30 0 39 -5 48 -25 11 -23 6 -33 -48 -106 -34 -45 -86 -125 -117 -178 -31
-53 -62 -103 -68 -111 -16 -20 -89 -192 -111 -259 l-17 -53 -18 23 c-11 13
-42 68 -69 122 -152 293 -190 562 -119 841 26 101 29 105 47 70 8 -16 26 -42
41 -57z m-752 -23 c-8 -21 -19 -39 -25 -39 -6 0 -14 -4 -19 -9 -5 -5 -3 -6 5
-2 24 14 11 -21 -37 -100 -27 -44 -69 -101 -93 -126 -57 -60 -173 -150 -154
-120 3 6 -3 14 -15 17 l-21 7 21 14 c32 23 161 213 161 238 0 2 -11 1 -24 -1
-26 -5 -86 -58 -86 -77 0 -6 -9 -22 -20 -36 -20 -24 -20 -24 0 29 12 30 24 59
26 63 3 5 1 15 -6 23 -8 10 -8 15 1 21 8 5 9 3 4 -6 -6 -9 -4 -11 4 -6 7 5 10
14 7 22 -3 8 -1 14 4 14 5 0 11 8 15 19 6 21 116 75 185 90 58 14 62 13 55 -1
-3 -7 0 -5 7 5 19 25 21 7 5 -39z m162 -5 c47 -56 65 -89 41 -74 -6 3 -7 -1
-4 -9 7 -18 21 -21 26 -7 2 6 13 4 25 -2 19 -11 14 -12 -42 -12 -35 -1 -61 3
-58 8 3 5 -3 7 -13 4 -11 -4 -31 -9 -46 -13 -16 -3 -25 -11 -21 -17 3 -6 1 -7
-5 -3 -6 4 -21 2 -32 -4 -11 -6 -20 -9 -20 -7 0 8 91 197 95 197 2 0 26 -27
54 -61z m-559 35 c0 -8 -4 -12 -10 -9 -5 3 -10 10 -10 16 0 5 5 9 10 9 6 0 10
-7 10 -16z m6767 -6 c-3 -8 -6 -5 -6 6 -1 11 2 17 5 13 3 -3 4 -12 1 -19z
m723 2 c0 -11 -2 -20 -4 -20 -2 0 -6 9 -9 20 -3 11 -1 20 4 20 5 0 9 -9 9 -20z
m-7627 -4 c3 -8 4 -22 2 -32 -2 -11 -4 -47 -4 -81 -1 -51 -4 -61 -16 -57 -8 4
-13 9 -11 13 3 4 -3 7 -12 8 -9 1 -37 9 -62 18 -25 10 -81 20 -124 23 -71 4
-77 6 -61 19 18 12 16 13 -15 8 -27 -4 -30 -3 -15 4 11 5 64 10 119 10 l98 1
37 39 c39 42 56 49 64 27z m7762 -26 c44 -22 72 -38 63 -36 -14 4 -16 -2 -14
-31 1 -20 7 -38 14 -41 17 -5 15 -32 -3 -32 -8 0 -15 -5 -15 -11 0 -6 -7 -17
-15 -25 -19 -19 -19 -13 -1 31 l15 35 -28 0 c-20 0 -30 6 -34 20 -3 11 -1 20
4 20 19 0 -5 30 -25 31 -20 0 -21 1 -1 10 l20 9 -20 -3 c-14 -2 -19 -9 -17
-22 2 -11 8 -21 13 -23 5 -2 9 -11 9 -20 0 -11 -10 -5 -30 18 -16 19 -29 37
-30 40 0 3 15 10 34 16 26 8 38 7 52 -3 10 -7 25 -13 33 -13 21 0 -79 49 -101
50 -10 0 -18 5 -18 10 0 15 9 12 95 -30z m-219 1 c38 -17 41 -22 47 -66 12
-85 13 -84 -38 -73 -24 5 -57 8 -72 6 -27 -3 -27 -4 16 -26 25 -12 49 -22 54
-22 10 0 36 -30 37 -41 0 -4 -19 -3 -42 2 -24 4 -97 15 -163 24 -66 9 -121 18
-124 20 -11 12 22 52 104 125 98 87 98 87 181 51z m-7274 -26 c2 -12 -12 -38
-38 -68 -45 -50 -74 -118 -75 -176 0 -32 -1 -33 -9 -13 -7 16 -30 233 -30 279
0 13 48 17 95 9 43 -8 55 -14 57 -31z m7411 33 c21 -11 21 -11 2 -19 -32 -12
-41 -10 -41 11 0 23 8 25 39 8z m878 -28 c72 -23 159 -76 159 -96 0 -20 -62
-83 -85 -87 -11 -2 -29 -8 -40 -14 -30 -16 -117 -42 -140 -43 -11 0 -49 -2
-85 -5 l-65 -5 61 14 c72 17 214 80 214 95 0 15 -10 14 -94 -13 -41 -14 -87
-23 -103 -21 -15 2 -41 4 -58 4 -16 1 -36 5 -44 10 -13 8 -13 12 -1 28 12 15
12 16 0 6 -8 -7 -18 -13 -22 -13 -13 0 25 49 38 50 7 0 14 7 18 15 3 8 16 15
28 15 16 0 19 3 10 9 -11 7 -11 9 2 14 9 4 16 12 16 18 0 11 -63 7 -115 -8
-18 -5 -18 -3 -5 10 45 47 193 54 311 17z m-3727 -46 c-138 -86 -212 -145
-305 -241 -119 -123 -183 -221 -270 -417 l-39 -89 227 6 c126 3 255 11 288 17
152 28 271 96 403 228 l83 83 82 3 c93 4 156 24 209 66 59 47 75 42 170 -59
143 -152 195 -248 71 -130 -34 32 -59 49 -69 45 -8 -3 -13 -2 -10 3 11 17 -79
44 -160 49 -58 3 -97 0 -139 -13 -56 -16 -215 -90 -215 -100 0 -16 154 -109
209 -126 128 -41 302 -23 395 40 72 49 67 51 159 -72 46 -62 98 -133 116 -160
37 -54 152 -247 147 -247 -1 0 -31 14 -66 32 -51 25 -78 32 -134 33 -69 3 -71
3 -74 30 -2 15 4 44 12 66 19 46 20 149 3 199 -11 30 -17 36 -57 43 -64 12
-146 2 -227 -28 l-70 -25 -743 0 -742 0 7 33 c52 240 220 459 470 610 86 53
331 177 348 177 5 0 -30 -25 -79 -56z m-3818 -21 c-4 -27 -9 -109 -13 -184 -6
-153 9 -277 53 -422 33 -107 34 -122 9 -122 -15 0 -21 8 -25 35 -5 32 -8 35
-34 32 -17 -2 -26 0 -22 6 13 21 -26 43 -68 40 -46 -3 -46 -3 -11 50 14 22 30
65 35 98 17 102 7 347 -13 317 -14 -22 -24 -14 -19 13 5 27 -33 78 -50 67 -6
-3 -5 4 1 15 6 11 11 36 11 56 l0 35 53 4 c28 2 63 4 76 5 23 2 23 0 17 -45z
m6839 -3 c3 -5 -3 -10 -14 -10 -12 0 -21 5 -21 10 0 6 6 10 14 10 8 0 18 -4
21 -10z m-1029 -15 c-20 -15 -36 -19 -36 -10 0 5 38 23 50 24 3 0 -4 -6 -14
-14z m-7395 -54 c32 -33 59 -63 59 -66 0 -10 -28 -35 -39 -35 -6 0 -11 -5 -11
-11 0 -5 5 -7 11 -3 8 5 9 -6 4 -35 -4 -26 -3 -41 4 -41 6 0 7 -8 4 -17 -5
-12 -14 5 -28 52 -12 39 -36 98 -53 132 -53 104 -38 111 49 24z m7390 12 c-12
-20 -14 -14 -5 12 4 9 9 14 11 11 3 -2 0 -13 -6 -23z m954 17 c3 -5 3 -15 -1
-21 -6 -11 -23 6 -24 24 0 10 18 9 25 -3z m-6935 -16 c0 -14 -3 -15 -17 -3
-10 7 -20 15 -22 16 -2 2 5 3 17 3 14 0 22 -6 22 -16z m4710 -169 c61 -70 29
-74 -47 -5 -30 28 -73 60 -94 71 -22 11 -39 21 -39 24 0 2 7 20 16 39 l17 34
52 -56 c29 -32 72 -79 95 -107z m1205 145 c-1 -11 -5 -23 -10 -27 -4 -5 -5 -2
-1 5 9 15 -6 16 -22 0 -9 -9 -15 -9 -23 -1 -16 16 -1 37 16 23 9 -7 16 -6 25
5 16 19 17 19 15 -5z m1135 -5 c0 -8 -8 -15 -17 -14 -13 0 -14 2 -4 6 11 5 11
7 0 14 -11 7 -10 9 4 9 9 0 17 -7 17 -15z m-8363 -11 c-3 -3 -12 -4 -19 -1 -8
3 -5 6 6 6 11 1 17 -2 13 -5z m8078 -15 c11 -16 1 -19 -13 -3 -7 8 -8 14 -3
14 5 0 13 -5 16 -11z m308 -9 c3 -11 1 -20 -4 -20 -5 0 -9 9 -9 20 0 11 2 20
4 20 2 0 6 -9 9 -20z m-7073 0 c8 -5 11 -10 5 -10 -5 0 -17 5 -25 10 -8 5 -10
10 -5 10 6 0 17 -5 25 -10z m6970 -6 c0 -8 -4 -12 -10 -9 -5 3 -10 10 -10 16
0 5 5 9 10 9 6 0 10 -7 10 -16z m-7211 -73 c11 -6 23 -6 32 0 11 8 10 9 -5 7
-10 -2 -21 3 -23 10 -4 9 10 7 46 -7 27 -10 51 -18 53 -16 11 9 88 14 88 5 0
-5 -7 -6 -17 -3 -11 4 -14 3 -9 -6 6 -9 -1 -11 -28 -6 -40 8 -44 4 -19 -16 9
-8 14 -9 11 -3 -4 6 6 10 26 10 l32 0 -57 -56 c-49 -48 -60 -66 -79 -129 -17
-53 -21 -90 -18 -142 3 -62 2 -67 -10 -44 -29 56 -102 380 -102 454 0 25 1 25
31 -12 17 -20 38 -41 48 -46z m-95 -88 c3 -84 4 -153 2 -153 -2 0 -12 32 -21
71 -10 39 -28 83 -40 97 l-22 26 35 58 c19 32 36 57 37 56 2 -2 5 -72 9 -155z
m76 127 c6 -11 8 -20 6 -20 -3 0 -10 9 -16 20 -6 11 -8 20 -6 20 3 0 10 -9 16
-20z m6111 -17 c13 -16 12 -17 -3 -4 -10 7 -18 15 -18 17 0 8 8 3 21 -13z
m521 8 c2 -4 42 -33 89 -64 48 -30 95 -67 105 -81 11 -15 29 -39 42 -54 42
-51 72 -123 71 -171 -2 -46 -2 -46 -9 12 -4 32 -11 61 -15 65 -4 4 -4 -8 0
-25 3 -18 4 -47 0 -64 l-7 -31 -14 27 c-8 15 -11 32 -7 38 4 6 9 3 14 -9 7
-17 8 -17 8 4 1 13 -5 22 -14 22 -8 0 -15 -5 -15 -11 0 -5 -4 -7 -10 -4 -15 9
-12 -1 10 -47 29 -59 25 -71 -6 -18 -14 25 -33 53 -41 63 -9 9 -13 17 -10 17
3 0 -6 12 -20 28 -31 33 -113 139 -113 146 0 2 6 6 13 9 6 2 3 3 -8 1 -19 -3
-65 31 -65 48 0 5 10 3 23 -4 12 -6 29 -12 37 -13 8 -1 26 -5 40 -8 14 -4 5 2
-19 13 -85 39 -87 39 -94 -25 -7 -72 7 -210 27 -257 23 -54 21 -58 -34 -58
-40 0 -54 -5 -75 -26 -24 -24 -25 -29 -15 -55 7 -15 22 -35 34 -42 12 -8 27
-31 33 -52 l12 -36 -27 17 c-15 10 -46 29 -69 42 l-43 24 -2 -54 c-6 -144 16
-230 70 -280 15 -14 48 -32 73 -41 l47 -15 12 44 c11 39 10 73 -7 142 -4 17
-1 22 14 22 40 0 78 69 64 117 l-8 28 59 1 c74 2 89 14 66 54 l-17 30 29 0
c17 0 30 -4 30 -10 0 -21 -65 -171 -121 -280 -65 -126 -156 -255 -179 -255 -8
0 -22 15 -31 33 -8 19 -35 47 -59 63 -37 25 -53 29 -110 29 -42 0 -73 -5 -86
-14 -18 -14 -17 -17 34 -65 63 -59 104 -75 183 -69 32 2 59 1 59 -3 0 -14
-315 -229 -336 -229 -2 0 -4 42 -5 93 0 50 -4 126 -8 167 l-9 75 44 66 c160
248 252 504 280 784 5 56 13 78 38 112 31 43 42 50 48 34z m698 -41 c1 22 4
27 7 15 2 -11 9 -30 15 -41 17 -35 6 -59 -27 -62 -30 -2 -79 35 -130 98 l-20
25 26 -22 c14 -13 30 -23 36 -23 7 0 21 -13 33 -30 14 -19 29 -30 43 -29 22 2
22 2 0 6 -13 2 -24 10 -24 16 -8 61 -6 77 7 77 8 0 15 6 16 13 0 6 4 -8 8 -33
7 -44 7 -44 10 -10z m-7081 9 c-27 -23 -25 -23 -25 -1 0 11 9 18 23 18 l24 2
-22 -19z m7016 1 c3 -5 2 -10 -4 -10 -5 0 -13 5 -16 10 -3 6 -2 10 4 10 5 0
13 -4 16 -10z m-7455 -40 c0 -5 -5 -10 -11 -10 -5 0 -7 5 -4 10 3 6 8 10 11
10 2 0 4 -4 4 -10z m-50 -15 c0 -2 -10 -9 -22 -15 -22 -11 -22 -10 -4 4 21 17
26 19 26 11z m-284 -155 c14 -56 34 -122 45 -146 20 -48 16 -52 -34 -28 -26
12 -33 21 -30 35 3 11 -7 43 -22 73 l-27 53 17 62 c10 34 19 60 21 58 2 -2 16
-50 30 -107z m8184 95 c0 -8 -4 -15 -10 -15 -5 0 -7 7 -4 15 4 8 8 15 10 15 2
0 4 -7 4 -15z m-7885 -39 c-39 -51 -65 -128 -65 -193 0 -34 -4 -53 -9 -47 -10
11 -101 236 -101 251 0 7 25 9 68 5 50 -3 76 0 98 11 16 8 31 14 33 12 1 -2
-9 -19 -24 -39z m-876 -6 c0 -10 -3 -8 -9 5 -12 27 -12 43 0 25 5 -8 9 -22 9
-30z m28 -155 c-31 -50 -35 -53 -53 -40 -26 19 -32 19 -39 -5 -3 -11 -9 -20
-13 -20 -7 0 -44 92 -39 96 1 1 20 -6 41 -17 24 -12 42 -15 46 -9 12 19 85 69
88 59 2 -5 -12 -34 -31 -64z m1383 -34 c-5 -11 -15 -23 -21 -27 -6 -3 -3 5 6
20 20 30 30 35 15 7z m7800 -64 c0 -5 -4 -5 -10 -2 -5 3 -10 14 -10 23 0 15 2
15 10 2 5 -8 10 -19 10 -23z m-8605 1 c42 -21 50 -31 110 -145 36 -68 65 -126
65 -128 0 -3 -8 -5 -17 -5 -11 0 -35 26 -58 61 -33 49 -118 129 -138 129 -17
0 -79 33 -71 38 6 4 20 22 33 40 12 17 24 32 26 32 3 0 25 -10 50 -22z m7422
0 c-3 -8 -6 -5 -6 6 -1 11 2 17 5 13 3 -3 4 -12 1 -19z m1153 -2 c0 -7 9 -16
19 -19 27 -7 44 -74 45 -172 1 -84 -18 -138 -62 -178 -19 -17 -20 -17 -24 8
-5 26 8 36 14 11 2 -10 8 -7 20 9 16 21 16 25 2 39 -8 9 -11 16 -5 16 6 0 11
8 11 17 0 14 3 14 12 5 10 -10 10 -15 -1 -21 -8 -5 -9 -11 -3 -15 13 -8 20 11
28 76 7 54 -3 63 -12 12 -6 -33 -14 -45 -14 -21 0 9 -6 28 -12 43 l-13 28 -6
-30 c-4 -16 -7 17 -8 73 0 56 -4 108 -7 117 -3 9 -1 16 5 16 6 0 11 -6 11 -14z
m-9057 -3 c-7 -2 -21 -2 -30 0 -10 3 -4 5 12 5 17 0 24 -2 18 -5z m204 0 c-20
-2 -52 -2 -70 0 -17 2 0 4 38 4 39 0 53 -2 32 -4z m169 -22 c-11 -17 -105 -31
-194 -29 l-87 1 115 7 c63 4 126 12 140 18 32 14 32 14 26 3z m-363 -8 c-7 -2
-19 -2 -25 0 -7 3 -2 5 12 5 14 0 19 -2 13 -5z m1331 1 c9 -4 16 -18 16 -34 0
-15 7 -44 15 -63 14 -33 11 -64 -5 -77 -4 -3 -19 -26 -34 -52 -15 -27 -30 -48
-33 -48 -2 0 -2 4 1 9 4 5 2 11 -4 13 -5 1 -10 49 -11 105 -2 81 2 107 15 128
18 28 18 28 40 19z m-237 -22 l40 6 -25 -27 c-13 -14 -28 -35 -32 -46 -7 -19
-9 -18 -19 8 -17 43 -25 85 -13 68 7 -10 22 -12 49 -9z m-277 -80 c-5 -15 -10
-36 -12 -46 -2 -16 -9 -11 -30 22 -16 23 -28 45 -28 50 0 4 18 6 39 4 37 -4
39 -5 31 -30z m7360 34 c0 -2 -8 -10 -17 -17 -16 -13 -17 -12 -4 4 13 16 21
21 21 13z m173 -31 c-3 -9 -8 -14 -10 -11 -3 3 -2 9 2 15 9 16 15 13 8 -4z
m-6802 -121 c27 -58 79 -147 114 -199 l64 -94 -11 -58 c-6 -32 -11 -109 -12
-170 0 -62 -4 -113 -9 -113 -11 0 -132 75 -207 128 -91 65 -144 122 -222 239
-56 82 -188 334 -188 357 0 4 9 2 19 -4 11 -5 35 -10 55 -10 55 0 62 -6 58
-47 -3 -24 -1 -34 7 -29 7 4 9 2 5 -8 -3 -8 8 -25 30 -42 35 -28 35 -30 29
-81 -3 -31 -1 -71 7 -96 l12 -44 41 14 c96 33 138 109 145 260 3 57 6 103 8
103 3 0 27 -47 55 -106z m6791 72 c4 -17 1 -23 -9 -19 -7 3 -13 1 -13 -5 0 -6
5 -12 11 -14 15 -5 -16 -68 -34 -69 -6 0 -20 -2 -29 -4 -16 -3 -16 -1 -1 21
12 19 19 22 29 13 11 -9 15 -7 20 5 4 9 4 20 0 23 -3 4 -6 -2 -6 -12 0 -14 -3
-16 -11 -8 -8 8 -5 22 10 52 12 22 23 41 25 41 2 0 6 -11 8 -24z m-7387 -17
c-5 -14 -3 -19 3 -15 6 3 9 -1 8 -10 -1 -9 -11 -21 -21 -26 -12 -7 -16 -7 -11
0 3 6 2 13 -4 17 -6 4 -3 15 7 30 22 30 26 31 18 4z m7067 -117 c-24 -33 -182
-185 -187 -180 -2 2 14 47 35 101 22 53 44 116 50 139 6 24 13 48 15 54 2 6
27 -10 55 -37 l52 -48 -20 -29z m1039 67 c-6 -16 -10 -18 -10 -7 -1 22 12 55
16 42 2 -6 -1 -22 -6 -35z m-8061 -12 c0 -7 22 -67 49 -134 l49 -123 -39 31
c-44 35 -179 179 -179 191 0 4 8 8 19 8 10 0 33 11 52 23 35 24 49 25 49 4z
m-950 -36 c0 -5 -10 -30 -22 -57 -12 -27 -27 -71 -33 -99 l-12 -50 -27 43
c-15 24 -26 45 -24 45 55 27 64 36 78 80 8 26 21 47 28 47 6 0 12 -4 12 -9z
m670 -72 c30 -44 61 -89 68 -99 12 -17 6 -20 -95 -44 -59 -14 -126 -27 -148
-30 -22 -2 -84 -12 -138 -21 -54 -10 -100 -15 -103 -12 -2 2 0 15 5 29 10 26
62 50 136 63 45 8 75 21 75 35 0 17 -66 48 -115 55 -108 13 -122 17 -100 25
27 11 57 12 51 2 -10 -17 198 39 228 61 10 7 32 14 49 15 29 1 37 -5 87 -79z
m8340 51 c0 -5 -4 -10 -9 -10 -6 0 -13 5 -16 10 -3 6 1 10 9 10 9 0 16 -4 16
-10z m-733 -45 c26 -25 56 -48 66 -51 20 -6 21 -28 6 -90 -11 -43 -12 -44 -48
-38 -74 12 -222 49 -224 57 -1 4 23 43 53 87 39 57 61 79 77 80 12 0 42 -19
70 -45z m586 1 c23 -24 49 -45 57 -48 12 -4 7 -19 -24 -79 -46 -89 -55 -101
-69 -92 -6 4 -8 0 -4 -10 5 -14 -55 -96 -88 -119 -11 -8 -35 9 -35 25 0 6 6 3
13 -8 10 -13 16 -15 21 -6 5 7 0 21 -10 32 -20 23 -12 26 10 4 14 -14 18 -13
45 17 21 23 26 37 19 45 -11 14 -1 36 13 28 5 -4 9 4 9 17 0 18 -2 20 -10 8
-7 -12 -9 -10 -7 7 2 28 24 12 29 -20 3 -17 5 -15 9 10 3 18 2 30 -3 27 -5 -3
-6 5 -3 18 3 13 -1 52 -9 88 -16 68 -20 100 -11 100 3 0 24 -20 48 -44z
m-9082 -33 c12 -38 39 -103 61 -146 35 -70 36 -76 16 -63 -13 8 -31 30 -41 48
-10 18 -36 46 -57 61 -39 28 -40 29 -25 57 8 16 15 47 15 70 0 22 2 40 4 40 2
0 14 -30 27 -67z m320 50 c0 -5 2 -51 5 -103 4 -106 12 -182 21 -207 4 -11 3
-14 -5 -9 -8 5 -12 0 -12 -13 0 -23 15 -28 23 -8 3 6 4 2 4 -9 -1 -14 -6 -20
-14 -17 -23 9 -14 -13 10 -25 12 -6 17 -11 11 -11 -7 -1 -21 7 -32 17 -18 15
-20 23 -13 65 7 45 -3 78 -12 40 -2 -10 -2 -7 1 7 10 44 9 255 -1 268 -6 8 -6
12 2 12 6 0 11 -3 12 -7z m5928 -55 c56 -59 61 -73 29 -82 -18 -4 -33 5 -70
41 -45 44 -46 47 -31 69 8 13 17 24 18 24 2 0 26 -24 54 -52z m-3169 17 l0
-25 -110 0 -110 0 0 25 0 25 110 0 110 0 0 -25z m370 0 l0 -25 -120 0 -120 0
0 25 0 25 120 0 120 0 0 -25z m370 0 l0 -25 -120 0 -120 0 0 25 0 25 120 0
120 0 0 -25z m370 0 l0 -25 -115 0 -115 0 0 25 0 25 115 0 115 0 0 -25z m370
0 l0 -25 -120 0 -120 0 0 25 0 25 120 0 120 0 0 -25z m370 0 l0 -25 -115 0
-115 0 0 25 0 25 115 0 115 0 0 -25z m370 0 l0 -25 -114 0 c-113 0 -114 0
-118 25 l-5 25 118 0 119 0 0 -25z m380 0 l0 -26 -122 3 c-119 3 -123 4 -126
26 -3 22 -2 22 122 22 l126 0 0 -25z m370 0 l0 -25 -120 0 -120 0 0 25 0 25
120 0 120 0 0 -25z m2904 -64 c-4 -23 -9 -40 -11 -37 -3 3 -2 23 2 46 4 23 9
39 11 37 3 -2 2 -23 -2 -46z m-8667 -38 c-2 -16 -4 -5 -4 22 0 28 2 40 4 28 2
-13 2 -35 0 -50z m-397 27 c0 -5 6 -7 14 -4 19 7 31 -15 16 -29 -9 -9 -14 -8
-23 4 -11 15 -15 15 -41 -7 -24 -22 -34 -24 -78 -18 -45 6 -51 5 -45 -9 5 -14
0 -17 -26 -16 -24 1 -26 3 -9 6 12 2 20 8 17 13 -8 13 40 23 71 16 21 -6 25
-4 21 8 -4 10 -1 13 8 10 7 -3 18 4 25 15 11 21 50 30 50 11z m9341 -76 c-17
-19 -31 -39 -31 -44 0 -6 -6 -10 -14 -10 -11 0 -10 8 5 40 11 22 24 52 30 67
l10 26 15 -22 c15 -20 14 -24 -15 -57z m-9461 56 c-8 -5 -19 -10 -25 -10 -5 0
-3 5 5 10 8 5 20 10 25 10 6 0 3 -5 -5 -10z m9267 -12 c-3 -8 -6 -5 -6 6 -1
11 2 17 5 13 3 -3 4 -12 1 -19z m-46 -25 c-10 -17 -10 -16 -11 3 0 23 13 41
18 25 2 -6 -1 -18 -7 -28z m-9047 7 c15 5 28 5 31 0 8 -13 -5 -18 -47 -16 -20
1 -34 -2 -32 -6 3 -4 14 -8 24 -8 10 0 21 -3 23 -7 3 -5 -38 -7 -91 -5 -53 2
-90 7 -84 11 7 4 36 6 65 5 36 -2 46 0 32 6 -11 5 -14 9 -7 9 6 1 12 8 12 17
0 15 2 15 25 0 18 -12 30 -13 49 -6z m-299 0 c-3 -5 -12 -10 -18 -10 -7 0 -6
4 3 10 19 12 23 12 15 0z m651 -77 l-15 -48 0 50 c-1 36 2 46 9 35 8 -12 10
-8 11 15 1 17 3 23 6 13 2 -9 -3 -38 -11 -65z m6494 14 c47 -105 150 -461 136
-474 -1 -2 -45 26 -98 60 -52 35 -151 93 -221 128 -135 68 -137 70 -137 151 0
44 2 48 28 53 123 24 184 53 229 110 16 19 29 35 31 35 2 0 16 -29 32 -63z
m2150 47 c0 -8 -4 -12 -10 -9 -5 3 -10 10 -10 16 0 5 5 9 10 9 6 0 10 -7 10
-16z m-6399 -29 c46 -41 100 -70 163 -86 l46 -11 0 -77 -1 -76 -62 -30 c-70
-34 -252 -142 -311 -186 -22 -16 -42 -27 -44 -24 -18 18 140 525 164 525 4 0
24 -16 45 -35z m-2881 19 c0 -8 -19 -13 -24 -6 -3 5 1 9 9 9 8 0 15 -2 15 -3z
m9316 -38 c-4 -20 -2 -37 4 -41 5 -3 10 -11 10 -18 0 -6 -7 -2 -15 10 -13 19
-12 83 2 83 3 0 2 -15 -1 -34z m-8976 12 c0 -4 -6 -8 -14 -8 -8 0 -17 4 -20 8
-2 4 4 8 15 8 10 0 19 -4 19 -8z m8923 -3 c-3 -9 -8 -14 -10 -11 -3 3 -2 9 2
15 9 16 15 13 8 -4z m-8898 -5 c3 -5 1 -10 -4 -10 -6 0 -11 5 -11 10 0 6 2 10
4 10 3 0 8 -4 11 -10z m1026 -16 l24 -26 -45 5 c-67 7 -132 -10 -173 -44 -39
-32 -69 -80 -71 -113 -1 -26 -36 -31 -36 -5 0 14 -7 19 -30 19 -35 0 -37 10
-12 90 l18 55 89 8 c50 4 113 13 140 21 70 19 69 19 96 -10z m5249 -79 l0
-105 -25 0 -25 0 0 105 0 105 25 0 25 0 0 -105z m1985 90 c27 -9 95 -18 151
-22 l101 -6 6 -69 c3 -39 13 -81 22 -94 8 -13 15 -26 15 -29 0 -3 -22 -5 -50
-5 -40 0 -50 3 -50 17 0 9 -15 41 -32 70 -52 85 -148 122 -246 94 -39 -12 -40
-6 -5 31 31 33 25 32 88 13z m-8565 -5 c0 -5 -2 -10 -4 -10 -3 0 -8 5 -11 10
-3 6 -1 10 4 10 6 0 11 -4 11 -10z m65 -22 c14 -6 25 -15 25 -20 0 -8 -17 -1
-50 22 -20 13 -7 13 25 -2z m321 -45 c74 -87 135 -165 132 -168 -9 -10 -85 28
-117 58 -45 43 -72 57 -110 57 -38 0 -40 12 -5 30 14 8 30 22 35 32 14 26 38
22 65 -9z m8178 15 c-6 -10 -4 -10 8 0 14 11 22 11 47 -3 17 -8 32 -14 34 -13
7 6 37 -24 32 -32 -3 -4 2 -11 11 -14 9 -3 14 -13 11 -21 -4 -8 -1 -12 6 -9 7
2 17 -7 24 -21 10 -23 1 -36 -11 -16 -14 22 -201 101 -240 101 -30 0 -26 20 6
29 50 14 81 13 72 -1z m680 -4 c3 -8 2 -12 -4 -9 -6 3 -10 10 -10 16 0 14 7
11 14 -7z m-118 -73 l22 -40 -51 -43 c-57 -48 -124 -98 -132 -98 -3 0 -5 9 -5
19 0 11 -15 29 -36 41 -34 22 -34 23 -17 42 9 11 50 35 89 54 40 19 77 41 84
49 18 22 23 19 46 -24z m-7561 -91 c50 -41 109 -91 132 -112 l41 -37 -34 -11
c-40 -13 -39 -14 -63 32 -20 38 -96 93 -149 108 -52 14 -113 12 -162 -5 -24
-8 -46 -12 -49 -9 -3 4 -1 9 6 11 34 12 95 68 113 103 l21 41 27 -23 c15 -13
68 -57 117 -98z m7850 98 c-19 -63 -45 -108 -62 -108 -10 0 -29 -3 -42 -7 -19
-5 -14 6 34 66 59 72 82 89 70 49z m-8545 -43 c19 -4 46 -11 60 -17 14 -6 37
-10 51 -9 16 1 29 -4 32 -13 9 -23 -3 -48 -17 -38 -12 9 -56 14 -56 6 0 -3 10
-9 23 -15 20 -8 19 -9 -6 -4 -17 3 -26 2 -23 -4 3 -5 -3 -7 -14 -4 -14 4 -20
0 -20 -12 0 -12 5 -15 16 -11 9 3 40 -1 69 -10 49 -14 138 -15 161 -2 8 5 53
18 81 24 6 1 9 -4 7 -11 -9 -22 -112 -55 -173 -55 -69 0 -150 23 -183 51 -12
11 -18 18 -12 15 7 -3 17 1 24 9 7 8 19 15 26 15 8 0 13 6 11 13 -1 8 11 12
41 11 23 0 42 3 42 8 0 9 -64 11 -97 2 -13 -4 -20 -10 -17 -15 3 -5 -1 -6 -8
-4 -8 3 -21 0 -31 -7 -15 -12 -15 -16 -3 -40 8 -16 12 -28 7 -28 -9 0 -169 99
-174 108 -2 4 4 26 14 48 l19 42 57 -24 c32 -13 74 -26 93 -29z m7561 1 c38
-36 72 -59 107 -70 29 -10 52 -19 52 -21 0 -3 -9 -9 -20 -15 -15 -8 -25 -7
-43 5 -13 8 -48 20 -79 26 -111 22 -236 -29 -277 -114 -22 -45 -22 -45 -56
-34 -19 6 -35 13 -35 17 0 3 53 49 118 102 64 53 130 110 146 127 17 17 30 31
31 31 0 0 26 -24 56 -54z m-7371 -67 c13 -9 13 -10 -2 -6 -9 3 -19 1 -22 -6
-2 -7 -5 -4 -5 6 -1 20 7 21 29 6z m5520 -160 c0 -109 0 -110 -22 -107 -22 3
-23 8 -26 111 l-3 107 26 0 25 0 0 -111z m-5301 50 c64 -145 252 -194 364 -94
21 19 53 39 73 45 34 11 36 10 143 -67 86 -61 106 -80 94 -87 -9 -5 -113 -6
-232 -3 -165 4 -239 11 -315 27 -111 24 -258 69 -337 104 l-53 23 60 7 c59 6
155 44 168 65 11 18 20 13 35 -20z m7366 -21 c14 0 23 -4 20 -8 -7 -11 32 -20
95 -20 l55 -1 -35 -18 c-101 -54 -308 -108 -500 -131 -92 -11 -398 -14 -424
-4 -12 5 3 20 56 56 40 28 89 63 109 79 l36 28 44 -17 c24 -10 58 -31 76 -48
65 -63 203 -59 293 8 17 12 42 46 56 75 l26 52 34 -26 c19 -14 45 -25 59 -25z
m-8020 -28 c-3 -5 -12 -10 -18 -10 -7 0 -6 4 3 10 19 12 23 12 15 0z m8552
-10 c2 -17 -4 -20 -44 -20 -54 0 -53 10 0 12 20 1 36 4 35 7 -1 10 2 21 5 21
1 0 3 -9 4 -20z m-2316 -76 c85 -72 209 -194 250 -247 l22 -29 -17 -141 c-41
-347 -40 -823 4 -1141 38 -281 23 -411 -60 -526 -48 -66 -104 -111 -185 -150
-89 -43 -285 -92 -285 -72 0 5 14 15 30 22 17 7 47 31 66 54 62 72 65 97 62
523 l-3 381 40 5 c26 4 48 15 62 32 l23 26 0 525 c0 342 -4 532 -10 545 -6 11
-30 24 -55 30 l-45 11 -2 82 c-1 44 -2 98 -3 118 -1 44 -5 45 106 -48z m2538
70 c10 -9 -45 -3 -59 6 -11 7 -5 8 20 4 19 -4 37 -8 39 -10z m-8929 -8 c0 -2
-9 -6 -20 -9 -11 -3 -18 -1 -14 4 5 9 34 13 34 5z m140 0 c0 -3 -4 -8 -10 -11
-5 -3 -10 -1 -10 4 0 6 5 11 10 11 6 0 10 -2 10 -4z m2422 -1128 c3 -1097 3
-1124 23 -1156 10 -17 37 -41 60 -53 l40 -21 -44 6 c-64 10 -178 56 -245 101
-32 21 -78 64 -102 94 -98 124 -113 248 -69 551 47 320 46 817 -1 1143 -10 66
-13 116 -8 128 23 49 308 328 336 329 4 0 9 -505 10 -1122z m-2483 1108 c-2
-2 -17 -6 -34 -10 -22 -5 -26 -4 -15 4 14 9 59 15 49 6z m361 -92 l55 -29 -75
-6 c-83 -7 -83 -7 -193 -57 -64 -29 -80 -33 -90 -22 -7 8 -8 11 -1 7 14 -8 37
17 26 28 -4 5 -2 5 5 1 15 -9 56 45 88 117 l25 57 52 -34 c29 -18 78 -46 108
-62z m8189 11 c9 -22 27 -52 40 -68 23 -28 23 -49 -1 -30 -34 27 -135 54 -204
55 l-74 1 103 62 c98 61 102 62 111 42 4 -12 16 -40 25 -62z m-8779 40 c-10
-12 -10 -15 0 -15 8 0 11 -3 7 -6 -3 -3 -11 -3 -17 1 -8 5 -8 11 1 21 6 8 14
14 16 14 3 0 0 -7 -7 -15z m105 -3 c-3 -3 -11 0 -18 7 -9 10 -8 11 6 5 10 -3
15 -9 12 -12z m-131 -77 c-10 -8 -23 -15 -28 -15 -6 0 -1 7 10 15 10 8 23 15
28 15 6 0 1 -7 -10 -15z m6286 -54 c0 -25 -3 -28 -25 -23 -39 7 -33 52 7 52
13 0 18 -8 18 -29z m2620 -21 c8 -5 12 -11 10 -14 -3 -2 -14 2 -24 10 -22 15
-10 19 14 4z m-8085 -18 c-3 -3 -11 0 -18 7 -9 10 -8 11 6 5 10 -3 15 -9 12
-12z m8050 8 c3 -5 2 -10 -4 -10 -5 0 -13 5 -16 10 -3 6 -2 10 4 10 5 0 13 -4
16 -10z m-177 -11 c13 1 20 -4 17 -9 -3 -6 1 -7 10 -4 18 7 105 -29 145 -59
23 -18 23 -19 3 -13 -16 5 -25 2 -33 -14 -11 -20 -11 -21 26 -5 51 21 52 23
21 49 -25 21 -27 36 -5 36 5 0 6 -5 2 -11 -4 -8 1 -9 17 -4 18 4 20 4 10 -4
-12 -8 -12 -12 -2 -25 7 -8 10 -20 7 -25 -4 -5 10 -17 29 -27 20 -9 33 -19 30
-22 -3 -3 -11 0 -17 6 -14 14 -67 15 -118 4 -47 -11 -294 16 -345 38 -11 5
-45 11 -75 14 -72 8 -83 10 -97 19 -6 4 -13 2 -15 -4 -2 -7 -17 -8 -41 -4 -41
8 -41 20 0 28 16 3 36 9 46 12 13 5 16 3 11 -8 -3 -8 -1 -18 5 -22 6 -3 11 -1
11 6 0 7 3 9 7 6 3 -4 12 -2 20 4 8 7 32 9 61 6 26 -3 38 -2 28 2 -25 10 -10
19 43 25 24 3 46 8 50 12 3 3 33 3 66 -1 33 -3 70 -6 83 -6z m-7831 -5 c-3 -3
-12 -4 -19 -1 -8 3 -5 6 6 6 11 1 17 -2 13 -5z m-627 -41 c-12 -8 -24 -12 -27
-9 -9 8 30 36 40 29 5 -3 -1 -12 -13 -20z m763 -3 c5 -4 -8 -11 -28 -14 -42
-8 -40 -9 -49 21 -7 21 -5 21 31 11 21 -5 42 -13 46 -18z m-708 -9 c-3 -5 -1
-12 5 -16 18 -11 11 -21 -38 -53 -50 -32 -167 -144 -210 -199 -13 -18 -29 -33
-36 -33 -6 0 -3 5 6 11 10 5 15 16 11 25 -3 8 -2 14 3 12 5 -2 33 21 62 51 38
40 49 57 40 64 -8 5 -5 6 10 2 12 -3 22 -3 22 2 0 15 47 63 54 56 9 -9 27 18
20 29 -3 4 -13 8 -22 7 -14 0 -13 -2 3 -9 16 -7 17 -9 3 -9 -15 -1 -35 16 -27
23 11 9 79 14 74 5 -4 -5 -1 -9 4 -9 13 0 13 3 5 23 -4 12 -12 13 -40 4 -26
-8 -38 -7 -47 2 -9 10 -8 11 5 6 9 -4 25 -2 35 4 22 13 66 14 58 2z m8722 -26
c0 -8 -4 -12 -9 -9 -5 3 -6 10 -3 15 9 13 12 11 12 -6z m-3257 -50 l0 -25
-115 0 -115 0 0 25 0 25 115 0 115 0 0 -25z m360 0 l0 -25 -115 0 -115 0 0 25
0 25 115 0 115 0 0 -25z m370 0 l0 -25 -125 0 -125 0 0 25 0 25 125 0 125 0 0
-25z m-1050 -34 c0 -3 -18 -14 -40 -24 -22 -10 -61 -38 -88 -62 -37 -33 -52
-41 -60 -33 -7 7 -12 17 -12 24 0 12 80 77 140 113 33 20 36 20 48 4 6 -9 12
-19 12 -22z m-5332 15 c-7 -8 -15 -12 -17 -11 -5 6 10 25 20 25 5 0 4 -6 -3
-14z m8922 -12 c0 -2 -9 0 -20 6 -11 6 -20 13 -20 16 0 2 9 0 20 -6 11 -6 20
-13 20 -16z m-8959 -53 c-12 -12 -21 -18 -21 -14 0 10 33 44 37 39 3 -2 -5
-14 -16 -25z m9014 -1 c3 -5 1 -10 -4 -10 -6 0 -11 5 -11 10 0 6 2 10 4 10 3
0 8 -4 11 -10z m104 -69 c11 -21 17 -41 14 -45 -3 -3 0 -12 7 -21 8 -10 9 -15
1 -15 -6 0 -11 5 -11 10 0 6 -11 20 -24 31 -21 18 -26 42 -17 77 3 9 13 -3 30
-37z m-49 19 c8 -5 11 -12 8 -16 -4 -3 -14 1 -23 10 -18 17 -9 21 15 6z
m-3730 -43 c0 -2 -17 -19 -37 -38 l-38 -34 34 38 c33 34 41 42 41 34z m-193
-35 c8 -5 5 -26 -13 -77 -13 -39 -24 -82 -24 -97 0 -23 -4 -28 -26 -28 -26 0
-26 2 -20 43 10 65 46 167 59 167 7 0 17 -4 24 -8z m3920 -18 c-3 -3 -12 -4
-19 -1 -8 3 -5 6 6 6 11 1 17 -2 13 -5z m-8667 -64 c10 -6 7 -8 -10 -9 -77 -2
-85 -5 -83 -32 1 -18 -5 -30 -20 -38 -21 -11 -21 -11 3 -6 20 5 18 2 -10 -14
-19 -10 -41 -16 -49 -13 -8 3 -12 1 -8 -5 3 -5 0 -10 -8 -10 -8 0 -15 4 -15 9
0 4 5 8 11 8 5 0 7 4 4 10 -3 5 0 7 8 5 16 -7 67 31 67 48 0 8 -3 7 -9 -2 -5
-7 -14 -10 -20 -6 -9 5 -7 11 5 19 9 7 14 18 10 24 -15 25 81 34 124 12z
m8405 -20 c-3 -5 -12 -10 -18 -10 -7 0 -6 4 3 10 19 12 23 12 15 0z m-8557
-39 c10 -6 10 -10 -3 -21 -12 -10 -18 -10 -30 0 -13 10 -15 9 -15 -9 0 -11 -5
-21 -10 -21 -7 0 -7 -7 0 -22 10 -22 10 -22 -4 -4 -13 16 -13 22 -1 46 13 25
27 37 45 39 3 0 11 -3 18 -8z m8653 -39 c6 -7 8 -16 4 -20 -3 -3 -11 0 -16 8
-9 12 -10 12 -5 -2 3 -12 0 -18 -9 -18 -8 0 -15 4 -15 8 0 5 -12 13 -27 20
-25 10 -26 11 -3 5 40 -9 42 -9 47 4 3 8 -3 11 -16 8 -18 -3 -19 -1 -8 16 11
18 13 18 24 2 7 -10 17 -24 24 -31z m-76 28 c3 -5 1 -10 -4 -10 -6 0 -11 5
-11 10 0 6 2 10 4 10 3 0 8 -4 11 -10z m-8415 -48 c0 -5 -6 -9 -12 -9 -7 -1
-29 -4 -48 -7 -35 -6 -35 -6 5 8 49 17 55 18 55 8z m8515 -20 c-3 -3 0 -11 7
-19 8 -11 7 -12 -6 -7 -9 3 -16 10 -16 16 0 5 -5 6 -12 2 -6 -4 -8 -3 -5 3 3
5 13 10 22 10 8 0 13 -3 10 -5z m-8607 -11 c9 -5 1 -10 -25 -14 -62 -11 -81
-7 -38 8 51 16 48 16 63 6z m4798 -83 c3 -18 18 -57 33 -86 22 -45 24 -54 11
-62 -8 -5 -18 -10 -21 -10 -10 0 -60 117 -66 155 -5 30 -3 35 15 35 15 0 22
-9 28 -32z m219 -285 c36 -17 41 -28 26 -52 -7 -12 -18 -9 -56 14 -26 15 -65
43 -87 63 -36 33 -38 36 -22 53 16 18 19 17 60 -21 24 -22 60 -48 79 -57z
m-234 -40 c13 -16 12 -17 -3 -4 -10 7 -18 15 -18 17 0 8 8 3 21 -13z m595 -9
c-3 -9 -6 -20 -6 -25 0 -5 -52 -9 -115 -9 l-115 0 0 25 0 25 121 0 c106 0 120
-2 115 -16z m354 -9 l0 -25 -115 0 -115 0 0 25 0 25 115 0 115 0 0 -25z m360
0 l0 -25 -120 0 -120 0 0 25 0 25 120 0 120 0 0 -25z m-180 -330 l0 -115 -30
0 -30 0 0 115 0 115 30 0 30 0 0 -115z m0 -320 l0 -115 -30 0 -30 0 0 115 0
115 30 0 30 0 0 -115z m-22 -193 l22 -17 -67 -68 -67 -67 -23 22 -24 22 63 63
c34 35 65 63 68 63 3 0 15 -8 28 -18z m-3172 -134 c1 -28 1 -28 -70 -30 -39
-1 -95 -2 -123 -3 l-53 -2 0 34 0 34 123 -3 122 -3 1 -27z m364 -1 l0 -32 -72
0 c-168 1 -178 3 -178 28 0 13 3 27 7 30 3 4 60 7 125 7 l118 0 0 -33z m368 1
l-3 -33 -120 0 c-107 0 -120 2 -123 18 -9 43 1 47 128 47 l121 0 -3 -32z m372
2 l0 -30 -67 -2 c-168 -5 -178 -4 -181 15 -9 43 1 47 128 47 l120 0 0 -30z
m368 -2 l3 -28 -125 0 c-125 0 -126 0 -126 23 0 13 3 27 7 31 4 3 59 5 122 4
l116 -3 3 -27z m350 26 c15 -4 22 -14 22 -30 l0 -24 -125 0 -125 0 0 30 0 30
103 0 c56 0 112 -3 125 -6z m390 -26 l3 -28 -129 0 -129 0 5 30 4 31 122 -3
121 -3 3 -27z m367 -3 l0 -30 -125 0 c-112 0 -125 2 -128 18 -9 43 1 46 130
44 l123 -2 0 -30z m375 5 l0 -30 -120 0 c-66 0 -123 0 -127 -1 -11 0 -16 29
-9 47 4 11 31 14 131 14 l125 0 0 -30z"/>
<path d="M3290 8429 c-14 -12 -26 -25 -26 -30 -1 -5 -2 -13 -3 -18 0 -5 -9
-12 -18 -14 -14 -4 -12 -5 5 -6 15 -1 22 5 22 17 0 11 3 13 8 5 5 -8 13 -6 29
7 19 15 20 19 7 24 -13 5 -14 9 -4 21 17 21 10 18 -20 -6z m20 -23 c0 -9 -30
-14 -35 -6 -4 6 3 10 14 10 12 0 21 -2 21 -4z"/>
<path d="M2845 7490 c10 -11 20 -20 23 -20 3 0 -3 9 -13 20 -10 11 -20 20 -23
20 -3 0 3 -9 13 -20z"/>
<path d="M2620 8426 c0 -8 4 -17 9 -20 5 -4 7 3 4 14 -6 23 -13 26 -13 6z"/>
<path d="M1690 8326 c0 -4 6 -13 13 -21 11 -11 18 -9 38 7 24 19 24 19 1 8
-18 -9 -27 -8 -38 1 -8 6 -14 8 -14 5z"/>
<path d="M2077 7946 c-3 -7 -1 -19 5 -27 8 -11 9 -10 4 4 -5 15 -2 17 14 12
25 -8 26 1 1 14 -14 8 -20 7 -24 -3z"/>
<path d="M2030 7900 c0 -5 5 -10 11 -10 5 0 7 5 4 10 -3 6 -8 10 -11 10 -2 0
-4 -4 -4 -10z"/>
<path d="M2120 7815 c0 -18 19 -40 26 -32 4 4 0 15 -9 24 -9 10 -17 13 -17 8z"/>
<path d="M8421 7934 c0 -11 3 -14 6 -6 3 7 2 16 -1 19 -3 4 -6 -2 -5 -13z"/>
<path d="M8401 7894 c0 -11 3 -14 6 -6 3 7 2 16 -1 19 -3 4 -6 -2 -5 -13z"/>
<path d="M8364 7842 c3 -5 -2 -18 -12 -28 -20 -23 -42 -60 -42 -71 0 -5 14 8
30 27 16 19 30 38 30 42 0 3 3 13 6 22 3 9 1 16 -6 16 -6 0 -9 -4 -6 -8z"/>
<path d="M1906 7837 c3 -10 9 -15 12 -12 3 3 0 11 -7 18 -10 9 -11 8 -5 -6z"/>
<path d="M870 7876 c0 -9 5 -16 10 -16 6 0 10 4 10 9 0 6 -4 13 -10 16 -5 3
-10 -1 -10 -9z"/>
<path d="M948 7833 c7 -3 16 -2 19 1 4 3 -2 6 -13 5 -11 0 -14 -3 -6 -6z"/>
<path d="M991 7734 c0 -11 3 -14 6 -6 3 7 2 16 -1 19 -3 4 -6 -2 -5 -13z"/>
<path d="M1000 7684 c0 -6 7 -19 16 -30 14 -18 14 -18 3 6 -14 31 -19 36 -19
24z"/>
<path d="M6965 7797 c1 -12 6 -21 11 -20 15 3 15 19 1 31 -11 9 -13 7 -12 -11z"/>
<path d="M1535 7420 c-4 -6 -11 -7 -17 -4 -7 4 -8 2 -4 -5 6 -9 11 -9 22 0 14
11 18 19 10 19 -3 0 -8 -5 -11 -10z"/>
<path d="M1475 7370 c3 -5 8 -10 11 -10 2 0 4 5 4 10 0 6 -5 10 -11 10 -5 0
-7 -4 -4 -10z"/>
<path d="M6573 7384 c-15 -33 -28 -82 -30 -118 -6 -69 6 -101 56 -158 16 -18
31 -42 34 -53 4 -16 5 -15 6 6 0 15 8 33 18 40 43 36 65 136 42 196 -14 37
-82 143 -92 143 -4 0 -20 -25 -34 -56z"/>
<path d="M6780 7208 c-16 -96 -8 -211 20 -276 23 -52 107 -142 133 -142 8 0
19 -15 25 -32 9 -30 10 -31 11 -8 1 14 12 47 26 74 46 90 32 212 -36 311 -22
33 -111 112 -156 138 -8 5 -15 -16 -23 -65z"/>
<path d="M7110 6863 c-34 -164 15 -328 113 -379 15 -8 27 -22 27 -32 0 -9 14
10 31 43 27 55 30 67 26 137 -3 65 -8 85 -38 133 -36 60 -120 140 -134 127 -5
-4 -5 -2 -1 5 3 6 2 14 -3 17 -5 4 -15 -19 -21 -51z"/>
<path d="M2332 7163 c1 -5 -4 -47 -12 -95 -31 -204 14 -361 125 -438 57 -39
145 -72 150 -57 39 115 46 148 46 211 0 159 -83 283 -238 356 -67 32 -74 34
-71 23z m202 -139 c3 -8 2 -12 -4 -9 -6 3 -10 10 -10 16 0 14 7 11 14 -7z"/>
<path d="M1770 7140 c0 -5 5 -10 10 -10 6 0 10 5 10 10 0 6 -4 10 -10 10 -5 0
-10 -4 -10 -10z"/>
<path d="M9763 7104 c0 -17 2 -22 7 -13 5 6 6 18 3 26 -8 19 -10 16 -10 -13z"/>
<path d="M7770 7050 c0 -5 5 -10 11 -10 5 0 7 5 4 10 -3 6 -8 10 -11 10 -2 0
-4 -4 -4 -10z"/>
<path d="M1710 6930 c-15 -10 -14 -11 28 -15 25 -3 30 10 6 19 -19 7 -16 8
-34 -4z"/>
<path d="M8405 6823 c-5 -14 -3 -15 6 -6 12 12 42 7 35 -6 -3 -4 4 -7 15 -7
25 0 24 3 -11 21 -36 19 -36 19 -45 -2z"/>
<path d="M8350 6806 c0 -2 7 -7 16 -10 8 -3 12 -2 9 4 -6 10 -25 14 -25 6z"/>
<path d="M8490 6761 c0 -6 4 -13 10 -16 6 -3 7 1 4 9 -7 18 -14 21 -14 7z"/>
<path d="M9740 6453 c5 -21 11 -50 15 -65 8 -39 25 -35 24 5 -1 31 -1 31 -9 7
-7 -19 -8 -11 -7 30 2 44 -1 55 -15 58 -14 3 -15 -2 -8 -35z m17 -5 c-3 -7 -5
-2 -5 12 0 14 2 19 5 13 2 -7 2 -19 0 -25z"/>
<path d="M1996 6475 c4 -8 1 -15 -5 -15 -6 0 -11 -4 -11 -10 0 -5 7 -7 15 -4
16 7 21 44 5 44 -5 0 -7 -7 -4 -15z"/>
<path d="M2140 5998 c-44 -23 -73 -55 -85 -95 -5 -19 -1 -22 39 -28 79 -12
143 12 200 75 20 22 36 44 36 49 0 5 -14 11 -31 15 -60 12 -115 6 -159 -16z
m134 -52 c-6 -15 -36 -29 -92 -45 -18 -6 -30 -6 -27 -1 2 4 19 11 37 14 18 4
44 15 58 26 30 24 31 24 24 6z"/>
<path d="M1610 6306 c0 -2 7 -7 16 -10 8 -3 12 -2 9 4 -6 10 -25 14 -25 6z"/>
<path d="M1283 6208 c1 -15 6 -23 11 -18 4 4 4 16 -2 26 -9 16 -10 14 -9 -8z"/>
<path d="M1244 6138 l-19 -23 23 19 c21 18 27 26 19 26 -2 0 -12 -10 -23 -22z"/>
<path d="M9530 5941 c0 -6 4 -13 10 -16 6 -3 7 1 4 9 -7 18 -14 21 -14 7z"/>
<path d="M410 6050 c0 -5 5 -10 10 -10 6 0 10 5 10 10 0 6 -4 10 -10 10 -5 0
-10 -4 -10 -10z"/>
<path d="M8738 5883 c7 -3 16 -2 19 1 4 3 -2 6 -13 5 -11 0 -14 -3 -6 -6z"/>
<path d="M8838 5873 c7 -3 16 -2 19 1 4 3 -2 6 -13 5 -11 0 -14 -3 -6 -6z"/>
<path d="M8790 5860 c8 -5 20 -10 25 -10 6 0 3 5 -5 10 -8 5 -19 10 -25 10 -5
0 -3 -5 5 -10z"/>
<path d="M8874 5854 c1 -7 6 -17 11 -21 4 -4 5 -2 1 5 -5 7 -1 12 10 12 19 0
11 13 -10 16 -8 1 -13 -4 -12 -12z"/>
<path d="M8900 5831 c0 -5 5 -13 10 -16 6 -3 10 -2 10 4 0 5 -4 13 -10 16 -5
3 -10 2 -10 -4z"/>
<path d="M8905 5250 c-3 -5 3 -10 13 -10 11 0 35 -2 53 -5 28 -4 26 -3 -11 10
-54 18 -48 17 -55 5z"/>
<path d="M9290 5250 c8 -5 22 -9 30 -9 10 0 8 3 -5 9 -27 12 -43 12 -25 0z"/>
<path d="M9305 5210 c-14 -6 -16 -9 -5 -11 8 -1 -5 -5 -30 -9 l-45 -7 59 -1
c49 -2 57 0 47 12 -10 11 -8 15 6 19 11 3 13 5 3 5 -8 0 -24 -3 -35 -8z"/>
<path d="M4437 8474 c-123 -84 -176 -205 -133 -309 8 -18 11 -36 8 -40 -4 -3
16 6 43 21 114 62 153 130 162 280 4 53 2 94 -3 94 -5 0 -39 -21 -77 -46z"/>
<path d="M5764 8438 c9 -109 20 -146 59 -205 23 -34 48 -56 87 -76 50 -25 55
-26 64 -10 6 10 10 46 10 79 -1 109 -59 197 -173 264 l-54 31 7 -83z"/>
<path d="M4090 8430 c-57 -112 -74 -225 -46 -303 19 -51 55 -102 86 -120 25
-15 26 -15 57 31 18 26 37 60 43 75 14 39 12 122 -4 184 -15 54 -85 193 -98
193 -4 0 -21 -27 -38 -60z"/>
<path d="M6098 8424 c-79 -146 -76 -295 7 -391 l33 -38 31 29 c83 79 92 203
25 341 -14 28 -36 64 -48 79 l-22 28 -26 -48z"/>
<path d="M3728 8373 c7 -3 16 -2 19 1 4 3 -2 6 -13 5 -11 0 -14 -3 -6 -6z"/>
<path d="M3850 8355 c-7 -8 -10 -15 -6 -15 3 0 -8 -23 -25 -51 -76 -130 -57
-294 46 -395 29 -27 55 -57 58 -65 3 -9 6 -6 6 8 1 12 16 45 34 74 28 46 32
62 36 136 4 103 -9 140 -83 247 -46 65 -55 74 -66 61z"/>
<path d="M3782 8349 c3 -8 13 -12 23 -11 17 3 17 2 4 -14 -13 -16 -12 -16 8
-3 25 15 21 23 -16 34 -17 5 -22 4 -19 -6z"/>
<path d="M3650 8154 c0 -4 33 -70 48 -93 1 -2 5 -2 8 2 4 3 -6 27 -20 52 -25
41 -36 54 -36 39z"/>
<path d="M3691 8004 c0 -11 3 -14 6 -6 3 7 2 16 -1 19 -3 4 -6 -2 -5 -13z"/>
<path d="M3717 8013 c-3 -4 1 -21 8 -38 l14 -30 -6 35 c-7 40 -9 45 -16 33z"/>
<path d="M1530 7940 c0 -5 6 -10 14 -10 8 0 18 5 21 10 3 6 -3 10 -14 10 -12
0 -21 -4 -21 -10z"/>
<path d="M1638 7943 c6 -2 18 -2 25 0 6 3 1 5 -13 5 -14 0 -19 -2 -12 -5z"/>
<path d="M1580 7926 c0 -2 7 -7 16 -10 8 -3 12 -2 9 4 -6 10 -25 14 -25 6z"/>
<path d="M1640 7920 c0 -5 9 -10 20 -10 11 0 20 5 20 10 0 6 -9 10 -20 10 -11
0 -20 -4 -20 -10z"/>
<path d="M1558 7903 c7 -3 16 -2 19 1 4 3 -2 6 -13 5 -11 0 -14 -3 -6 -6z"/>
<path d="M4384 7783 c15 -4 16 -7 5 -15 -12 -8 -12 -9 0 -6 25 7 24 28 -1 27
-19 -1 -20 -2 -4 -6z"/>
<path d="M4378 7743 c7 -3 16 -2 19 1 4 3 -2 6 -13 5 -11 0 -14 -3 -6 -6z"/>
<path d="M3651 7402 c-38 -60 -61 -124 -61 -171 0 -44 31 -113 57 -132 11 -8
22 -21 26 -29 4 -12 6 -12 6 2 1 10 16 38 35 62 58 76 58 174 0 274 -14 23
-26 42 -28 42 -2 0 -18 -22 -35 -48z"/>
<path d="M9678 5521 c8 -4 13 -11 13 -15 -1 -3 2 -6 7 -7 16 -2 31 -22 25 -33
-3 -6 0 -5 8 2 12 11 9 17 -16 38 -16 13 -34 24 -40 24 -5 0 -4 -4 3 -9z"/>
<path d="M811 5074 c0 -11 3 -14 6 -6 3 7 2 16 -1 19 -3 4 -6 -2 -5 -13z"/>
<path d="M786 5053 c-6 -14 -5 -15 5 -6 7 7 10 15 7 18 -3 3 -9 -2 -12 -12z"/>
<path d="M810 4990 c-31 -31 -97 -60 -158 -69 -44 -7 -49 -9 -21 -10 56 -2
132 26 174 64 22 19 37 35 33 35 -5 0 -17 -9 -28 -20z"/>
<path d="M1563 4957 c4 -11 3 -16 -3 -12 -14 9 -96 -81 -122 -135 -27 -53 -30
-174 -7 -228 l14 -33 35 24 c19 13 34 29 33 35 -2 6 3 9 10 7 20 -7 65 64 78
123 10 48 9 70 -4 136 -9 44 -22 84 -28 90 -9 8 -10 7 -6 -7z"/>
<path d="M8686 4919 c-23 -74 -21 -182 5 -236 21 -43 68 -87 127 -117 31 -16
32 -16 32 3 0 11 -4 22 -9 25 -5 3 -12 18 -15 33 -8 33 -56 152 -98 242 -21
45 -26 67 -19 74 8 8 11 4 11 -13 0 -20 2 -22 10 -10 11 16 11 16 14 -20 4
-37 16 -70 26 -70 5 0 12 12 17 27 l10 28 6 -28 c4 -15 12 -27 17 -27 6 0 10
-7 10 -16 0 -8 -4 -13 -8 -10 -5 3 -9 -1 -9 -9 0 -12 3 -12 16 -2 12 10 14 9
9 -3 -18 -45 -19 -54 -3 -30 l16 25 -5 -35 c-4 -25 -3 -31 4 -20 7 11 9 0 8
-37 0 -29 -4 -53 -8 -53 -5 0 -5 -10 -2 -22 6 -23 6 -23 13 2 30 107 -19 239
-118 318 l-40 31 -17 -50z m98 -44 c-6 -16 -23 -21 -25 -7 0 4 -2 15 -4 24 -3
15 0 16 16 8 10 -6 16 -17 13 -25z"/>
<path d="M638 4933 c7 -3 16 -2 19 1 4 3 -2 6 -13 5 -11 0 -14 -3 -6 -6z"/>
<path d="M1913 2384 c-83 -30 -143 -122 -128 -197 17 -82 65 -118 220 -162
103 -30 132 -46 145 -81 14 -35 -11 -89 -49 -108 -17 -9 -55 -16 -89 -16 -71
0 -116 26 -147 83 -11 20 -23 37 -27 37 -4 0 -23 -9 -42 -21 l-36 -21 22 -40
c59 -106 201 -155 332 -116 86 26 157 133 140 211 -18 86 -51 111 -203 156
-129 37 -155 54 -159 107 -2 31 2 44 22 63 65 61 190 40 231 -39 l15 -30 40
26 c22 15 40 33 40 40 0 21 -69 84 -114 105 -50 23 -153 24 -213 3z"/>
<path d="M2345 2380 c-4 -6 -4 -153 0 -326 l8 -314 43 0 44 0 0 248 1 247 32
-85 c19 -47 60 -158 93 -247 l59 -163 46 0 46 0 88 233 c48 127 90 235 94 239
3 4 5 -101 3 -232 l-3 -240 50 0 51 0 0 325 0 325 -63 0 -63 0 -100 -264 c-54
-146 -102 -262 -106 -258 -3 4 -38 95 -77 202 -39 107 -81 222 -94 255 l-23
60 -61 3 c-37 2 -64 -1 -68 -8z"/>
<path d="M3310 2368 c-5 -13 -68 -159 -139 -326 l-129 -303 56 3 55 3 31 82
31 83 151 0 151 0 38 -85 38 -85 52 0 53 0 -63 148 c-35 81 -97 226 -137 322
l-74 175 -52 3 c-46 3 -53 0 -62 -20z m118 -224 c28 -75 50 -140 46 -145 -8
-13 -214 -12 -214 2 0 15 104 278 110 278 3 0 29 -61 58 -135z"/>
<path d="M3748 2384 c-5 -4 -8 -151 -8 -326 l0 -318 50 0 49 0 3 123 3 122 60
2 60 3 29 -43 c16 -23 54 -79 85 -124 l55 -83 53 0 c29 0 53 2 53 5 0 3 -36
60 -81 126 -44 66 -79 123 -77 125 3 2 24 14 49 27 130 69 123 258 -13 332
-51 28 -59 29 -208 33 -85 2 -158 1 -162 -4z m306 -98 c45 -19 66 -52 66 -103
0 -80 -54 -112 -192 -113 -90 0 -88 -3 -88 121 l0 109 90 0 c55 0 104 -6 124
-14z"/>
<path d="M4248 2345 l-3 -45 112 0 113 0 0 -280 0 -280 45 0 45 0 0 264 c0
145 3 271 6 280 5 13 24 16 105 16 l99 0 0 45 0 45 -259 0 -259 0 -4 -45z"/>
<path d="M5370 2368 c-9 -23 -68 -237 -113 -418 -14 -52 -27 -88 -30 -80 -2 8
-25 110 -51 225 -68 311 -57 285 -117 285 -43 0 -50 -2 -45 -17 8 -30 156
-615 156 -620 0 -2 25 -3 56 -1 l57 3 33 115 c19 63 51 177 71 253 20 76 39
134 43 130 4 -4 36 -119 71 -255 l64 -248 56 0 56 0 52 193 c29 105 68 247 87
314 19 67 34 125 34 128 0 3 -23 5 -52 3 l-52 -3 -61 -253 c-58 -235 -75 -292
-75 -247 0 10 -28 130 -61 267 l-61 248 -54 0 c-47 0 -56 -3 -64 -22z"/>
<path d="M6090 2387 c0 -2 -63 -148 -139 -325 l-139 -322 52 0 53 0 35 83 35
82 150 3 150 3 38 -86 38 -85 49 0 c43 0 49 2 44 18 -4 9 -64 154 -134 322
l-128 305 -52 3 c-29 2 -52 1 -52 -1z m110 -256 c28 -73 49 -135 47 -137 -2
-3 -54 -3 -115 -2 l-111 3 55 130 c29 72 54 137 54 145 0 30 20 -9 70 -139z"/>
<path d="M6510 2081 c0 -170 3 -316 6 -325 5 -14 34 -16 215 -16 l209 0 0 45
0 45 -165 0 -166 0 1 268 c0 147 0 273 0 280 0 8 -17 12 -50 12 l-50 0 0 -309z"/>
<path d="M7000 2065 l0 -325 210 0 210 0 0 45 0 45 -160 0 -160 0 0 280 0 280
-50 0 -50 0 0 -325z"/>
<path d="M7476 2098 c1 -161 3 -308 3 -325 l1 -33 220 0 c213 0 220 1 221 20
4 72 23 65 -168 68 l-172 2 -3 96 c-2 53 -1 98 1 100 2 2 71 4 153 4 l148 0 0
40 0 40 -150 0 -150 0 -1 48 c0 26 -2 68 -4 95 l-4 47 170 0 170 0 -3 43 -3
42 -215 3 -215 2 1 -292z"/>
<path d="M7950 2345 l0 -45 105 0 105 0 0 -280 0 -280 50 0 50 0 0 280 0 280
110 0 110 0 0 45 0 45 -265 0 -265 0 0 -45z"/>
<path d="M3086 1400 c-64 -20 -94 -72 -72 -125 16 -39 34 -50 102 -65 64 -14
94 -35 94 -64 0 -35 -30 -56 -83 -56 -39 0 -49 4 -69 30 -17 21 -29 29 -41 24
-53 -20 44 -104 120 -104 33 0 95 35 108 61 38 72 -4 130 -106 150 -44 9 -65
18 -76 35 -14 22 -14 26 1 49 13 20 25 25 61 25 35 0 48 -5 64 -26 15 -19 26
-24 41 -19 40 13 15 51 -53 80 -40 17 -49 17 -91 5z"/>
<path d="M4515 1401 c-79 -20 -125 -85 -125 -177 0 -130 92 -199 227 -171 67
14 93 30 88 55 -2 9 -4 41 -4 70 l-1 52 -76 0 c-66 0 -75 -2 -72 -17 2 -14 15
-19 56 -21 52 -3 52 -3 52 -37 0 -43 -29 -65 -87 -65 -92 0 -133 44 -133 144
0 53 3 61 34 92 29 29 41 34 81 34 40 0 52 -5 81 -34 28 -28 36 -32 50 -22 14
11 15 15 3 35 -30 48 -112 78 -174 62z"/>
<path d="M4865 1403 c-55 -10 -67 -16 -85 -46 -43 -70 -12 -118 94 -148 75
-20 86 -29 86 -71 0 -33 -24 -48 -79 -48 -40 0 -81 26 -81 50 0 13 -37 13 -45
0 -9 -14 11 -46 43 -68 57 -41 153 -34 191 15 27 34 28 96 2 122 -18 18 -107
51 -136 51 -18 0 -45 34 -45 58 0 47 95 59 134 17 15 -16 30 -23 40 -19 57 22
-49 99 -119 87z"/>
<path d="M3403 1383 c-3 -10 -34 -89 -68 -175 -62 -156 -62 -158 -38 -158 19
0 28 10 43 45 l19 45 80 0 79 0 18 -45 c14 -38 21 -45 44 -45 l27 0 -69 175
c-68 171 -71 175 -99 175 -19 0 -32 -6 -36 -17z m72 -126 c22 -59 23 -68 10
-74 -17 -6 -93 2 -102 10 -2 3 8 37 23 76 15 39 31 68 35 64 5 -5 20 -39 34
-76z"/>
<path d="M3580 1393 c0 -4 30 -83 66 -175 l66 -168 31 0 32 0 60 163 c75 201
71 187 42 187 -22 0 -29 -12 -77 -145 -29 -80 -56 -145 -60 -145 -3 0 -21 42
-39 93 -73 203 -71 197 -97 197 -13 0 -24 -3 -24 -7z"/>
<path d="M3940 1226 l0 -176 25 0 25 0 -2 173 c-3 170 -3 172 -25 175 l-23 3
0 -175z"/>
<path d="M4050 1225 l0 -175 25 0 24 0 3 132 3 132 90 -132 c78 -115 94 -132
118 -132 l27 0 0 175 0 175 -25 0 -25 0 0 -137 0 -137 -52 75 c-128 183 -141
199 -165 199 l-23 0 0 -175z"/>
<path d="M5150 1380 c0 -18 7 -20 55 -20 l55 0 0 -155 0 -155 25 0 25 0 0 155
0 155 55 0 c48 0 55 2 55 20 0 19 -7 20 -135 20 -128 0 -135 -1 -135 -20z"/>
<path d="M5462 1228 c3 -170 3 -173 25 -176 21 -3 22 1 25 65 l3 68 40 3 40 2
38 -70 c33 -63 41 -70 67 -70 l30 0 -41 67 -41 67 25 21 c68 56 62 141 -13
180 -19 10 -58 15 -115 15 l-85 0 2 -172z m194 107 c19 -25 18 -65 -3 -87 -12
-14 -31 -18 -80 -18 l-63 0 0 58 c0 32 3 62 8 66 4 4 33 6 66 4 42 -3 62 -10
72 -23z"/>
<path d="M5859 1353 c-30 -69 -119 -292 -119 -298 0 -3 11 -5 24 -5 20 0 28 9
42 45 l17 45 83 0 82 0 18 -45 c13 -36 22 -45 40 -45 13 0 24 3 24 7 0 4 -30
83 -67 175 -65 161 -69 168 -96 168 -24 0 -31 -7 -48 -47z m84 -91 c15 -40 27
-75 27 -78 0 -6 -116 -5 -122 2 -3 3 8 41 26 84 17 43 34 76 37 72 3 -4 18
-40 32 -80z"/>
<path d="M6160 1378 c-43 -29 -80 -99 -80 -153 1 -141 142 -226 258 -154 34
20 75 77 66 91 -11 18 -45 7 -56 -18 -23 -50 -112 -71 -163 -38 -27 18 -55 81
-55 125 0 47 26 96 59 113 55 29 119 16 148 -31 13 -20 25 -27 41 -25 26 4 27
6 6 40 -27 46 -64 66 -129 70 -50 3 -66 0 -95 -20z"/>
<path d="M6457 1393 c-4 -3 -7 -82 -7 -175 l0 -168 25 0 c23 0 24 3 27 72 2
39 8 73 14 75 5 2 39 -30 75 -71 54 -64 69 -75 97 -75 29 -1 44 12 23 21 -4 2
-41 38 -81 82 l-72 78 83 84 84 84 -34 0 c-29 0 -44 -11 -112 -82 l-78 -83 -1
83 c0 73 -2 82 -18 82 -10 0 -22 -3 -25 -7z"/>
<path d="M6750 1256 c0 -79 3 -158 6 -175 l7 -31 114 0 c104 0 114 2 111 18
-3 14 -17 17 -96 20 l-92 3 0 59 0 60 80 0 c73 0 80 2 80 20 0 18 -7 20 -81
20 l-80 0 3 53 3 52 88 3 c79 3 87 5 87 22 0 19 -7 20 -115 20 l-115 0 0 -144z"/>
<path d="M7037 1393 c-6 -14 -8 -303 -2 -323 4 -11 15 -20 25 -20 17 0 19 9
22 68 l3 67 41 3 c39 3 41 2 63 -45 35 -75 53 -95 84 -91 l27 3 -40 60 c-22
33 -40 63 -40 67 0 3 16 22 35 41 37 37 43 65 25 111 -17 46 -65 66 -157 66
-45 0 -84 -3 -86 -7z m183 -53 c24 -24 26 -57 4 -88 -14 -20 -23 -23 -77 -20
l-62 3 -3 63 -3 62 61 0 c47 0 64 -4 80 -20z"/>
<path d="M2170 1245 c-184 -7 -380 -14 -435 -16 -98 -2 -96 -2 50 -10 302 -14
905 -31 920 -25 11 4 15 15 13 33 l-3 28 -105 1 c-58 1 -256 -4 -440 -11z"/>
<path d="M7568 1255 c-14 -15 -8 -55 8 -62 14 -5 1055 25 1061 31 2 1 -174 8
-390 15 -215 6 -455 14 -532 18 -77 3 -143 2 -147 -2z"/>
</g>
</svg>
